<svg id="Calque_1" data-name="Calque 1" xmlns="http://www.w3.org/2000/svg" viewBox="0 0 171.34 176.68"><title>layers</title><path d="M171.18,150.73s-57.06,30.57-60.67,32.53c-7.87,4.28-18.88,4-26,0-3.66-2-56.37-31.27-58.33-32.33-12.92-7-12.67-21.26,0-28.27C29.93,120.58,81.74,92.58,84.51,91a26.72,26.72,0,0,1,26,0c3.31,1.75,57.1,30.57,60.67,32.33C185.76,130.56,185.26,143.3,171.18,150.73Z" transform="translate(-13.58 -12.67)" style="stroke:#000;stroke-miterlimit:10;stroke-width:6px"/><path d="M171.18,113.73s-57.06,30.57-60.67,32.53c-7.87,4.28-18.88,4-26,0-3.66-2-56.37-31.27-58.33-32.33-12.92-7-12.67-21.26,0-28.27C29.93,83.58,81.74,55.58,84.51,54a26.72,26.72,0,0,1,26,0c3.31,1.75,57.1,30.57,60.67,32.33C185.76,93.56,185.26,106.3,171.18,113.73Z" transform="translate(-13.58 -12.67)" style="fill:#fff;stroke:#000;stroke-miterlimit:10;stroke-width:6px"/><path d="M171.18,78.73s-57.06,30.57-60.67,32.53c-7.87,4.28-18.88,4-26,0-3.66-2-56.37-31.27-58.33-32.33-12.92-7-12.67-21.26,0-28.27C29.93,48.58,81.74,20.58,84.51,19a26.72,26.72,0,0,1,26,0c3.31,1.75,57.1,30.57,60.67,32.33C185.76,58.56,185.26,71.3,171.18,78.73Z" transform="translate(-13.58 -12.67)" style="fill:#fff;stroke:#000;stroke-miterlimit:10;stroke-width:6px"/></svg>