<?xml version="1.0" encoding="utf-8"?>
<!-- Generator: Adobe Illustrator 19.2.1, SVG Export Plug-In . SVG Version: 6.00 Build 0)  -->
<svg version="1.1" id="Layer_1" xmlns="http://www.w3.org/2000/svg" xmlns:xlink="http://www.w3.org/1999/xlink" x="0px" y="0px"
	 viewBox="0 0 627.3 121.7" style="enable-background:new 0 0 627.3 121.7;" xml:space="preserve">
<style type="text/css">
	.st0{fill:#FFFFFF;}
	.st1{fill:#EB5665;}
</style>
<path class="st0" d="M186.1,69.2c0,1.5-0.5,2.9-1.5,4.2c-1,1.3-2.6,1.9-4.6,1.9h-27.2c-1.6,0-3.1-0.6-4.3-1.9s-1.9-2.7-1.9-4.3V7.2
	c0-2.1,0.6-3.6,1.9-4.6c1.3-1,2.7-1.5,4.3-1.5c1.6,0,3,0.5,4.3,1.5c1.3,1,1.9,2.6,1.9,4.6V63h21c2.1,0,3.6,0.6,4.6,1.9
	C185.6,66.2,186.1,67.6,186.1,69.2z"/>
<path class="st0" d="M206.4,74.3c-1.3,1-2.7,1.5-4.3,1.5c-1.6,0-3-0.5-4.3-1.5c-1.3-1-1.9-2.5-1.9-4.6V7.2c0-2.1,0.6-3.6,1.9-4.6
	c1.3-1,2.7-1.5,4.3-1.5c1.6,0,3,0.5,4.3,1.5c1.3,1,1.9,2.6,1.9,4.6v62.6C208.4,71.8,207.7,73.3,206.4,74.3z"/>
<path class="st0" d="M264.7,74c-1.2,1.2-2.7,1.8-4.3,1.8h-1.2c-2,0-3.4-0.5-4.4-1.5c-0.9-1-1.7-2.3-2.3-3.7l-17.2-39.9v39
	c0,2.1-0.6,3.6-1.9,4.6c-1.3,1-2.7,1.5-4.3,1.5c-1.6,0-3-0.5-4.3-1.5c-1.3-1-1.9-2.5-1.9-4.6V7.2c0-1.6,0.6-3.1,1.9-4.3
	c1.2-1.2,2.7-1.9,4.3-1.9h1.4c2,0,3.4,0.5,4.4,1.6c0.9,1.1,1.7,2.3,2.3,3.7l16.9,38.4V7.1c0-2.1,0.6-3.6,1.9-4.6
	c1.3-1,2.7-1.5,4.3-1.5c1.6,0,3,0.5,4.3,1.5c1.3,1,1.9,2.5,1.9,4.6v62.7C266.6,71.4,265.9,72.8,264.7,74z"/>
<path class="st0" d="M324.1,69.9c0,1.8-0.7,3.2-2,4.3c-1.3,1.1-2.8,1.6-4.4,1.6c-1.1,0-2.1-0.3-3-0.7c-1-0.5-1.8-1.4-2.4-2.7
	l-13.6-28.1l-5.9,8.6v16.8c0,2.1-0.6,3.6-1.9,4.6c-1.3,1-2.7,1.5-4.3,1.5c-1.6,0-3-0.5-4.3-1.5c-1.3-1-1.9-2.5-1.9-4.6V7.2
	c0-2.1,0.6-3.6,1.9-4.6c1.3-1,2.7-1.5,4.3-1.5c1.6,0,3,0.5,4.3,1.5c1.3,1,1.9,2.6,1.9,4.6v23.8l18.4-27.3c0.7-1,1.5-1.7,2.3-2.1
	c0.9-0.4,1.7-0.6,2.7-0.6c1.6,0,3.1,0.6,4.4,1.8c1.3,1.2,2,2.6,2,4.3c0,1.1-0.4,2.3-1.2,3.5l-14.8,21.9l16.8,34.6
	C323.9,68,324.1,69,324.1,69.9z"/>
<path class="st0" d="M165.2,95.1c0,0.3,0,0.4,0,0.5l-5.7,23.6c-0.1,0.5-0.4,1-0.8,1.2c-0.4,0.3-0.9,0.4-1.4,0.4
	c-0.5,0-1-0.1-1.4-0.4c-0.4-0.3-0.7-0.7-0.8-1.2l-5.7-23.6c0-0.1,0-0.2,0-0.5c0-0.5,0.2-1,0.5-1.3c0.4-0.4,0.8-0.5,1.4-0.5
	c0.4,0,0.7,0.1,1.1,0.3c0.3,0.2,0.6,0.6,0.7,1.1l4.2,18l4.2-18c0.1-0.5,0.4-0.9,0.7-1.1c0.3-0.2,0.7-0.3,1.1-0.3
	c0.6,0,1,0.2,1.4,0.5C165,94.1,165.2,94.6,165.2,95.1z"/>
<path class="st0" d="M173,120.3c-0.4,0.3-0.8,0.5-1.3,0.5c-0.5,0-0.9-0.1-1.3-0.5c-0.4-0.3-0.6-0.8-0.6-1.4V95.1
	c0-0.6,0.2-1.1,0.6-1.4c0.4-0.3,0.8-0.5,1.3-0.5c0.5,0,0.9,0.2,1.3,0.5c0.4,0.3,0.6,0.8,0.6,1.4v23.8
	C173.6,119.5,173.4,120,173,120.3z"/>
<path class="st0" d="M194.4,113.5c0,1.1-0.2,2.1-0.6,3c-0.4,0.9-1,1.7-1.6,2.3c-0.7,0.6-1.5,1.1-2.5,1.5c-1,0.3-2,0.5-3.1,0.5h-0.4
	c-1,0-2-0.2-2.9-0.5c-0.9-0.3-1.7-0.8-2.5-1.5c-0.7-0.7-1.3-1.5-1.7-2.4c-0.4-0.9-0.6-2-0.6-3.2c0-0.6,0.2-1.1,0.6-1.4
	c0.4-0.3,0.8-0.5,1.3-0.5c0.5,0,0.9,0.2,1.3,0.5c0.4,0.3,0.6,0.8,0.6,1.4c0,1.3,0.4,2.2,1.1,2.9c0.7,0.7,1.7,1,2.8,1h0.4
	c1.2,0,2.1-0.3,2.9-0.9c0.8-0.6,1.1-1.5,1.1-2.7c0-0.9-0.3-1.7-0.9-2.3c-0.6-0.7-1.3-1.2-2.2-1.8c-0.9-0.5-1.8-1.1-2.8-1.6
	c-1-0.5-2-1.1-2.8-1.7c-0.9-0.6-1.6-1.4-2.2-2.2c-0.6-0.8-0.9-1.8-0.9-3v-0.7c0-1.1,0.2-2,0.7-2.9c0.4-0.8,1-1.6,1.7-2.2
	c0.7-0.6,1.5-1.1,2.4-1.4c0.9-0.3,1.8-0.5,2.7-0.5h0.4c0.9,0,1.9,0.1,2.7,0.4c0.9,0.2,1.7,0.6,2.4,1.1c0.7,0.5,1.2,1.1,1.7,1.9
	c0.4,0.8,0.6,1.6,0.6,2.6v0.2c0,0.5-0.2,0.9-0.5,1.3c-0.3,0.3-0.8,0.5-1.3,0.5c-0.5,0-1-0.2-1.3-0.5s-0.5-0.7-0.7-1.3
	c-0.2-1.1-0.6-1.8-1.2-2.1c-0.6-0.3-1.4-0.5-2.4-0.5h-0.4c-0.4,0-0.8,0.1-1.3,0.2c-0.4,0.1-0.8,0.3-1.2,0.6c-0.4,0.3-0.6,0.6-0.9,1
	c-0.2,0.4-0.3,0.8-0.3,1.3v0.8c0,0.6,0.3,1.2,0.9,1.7c0.6,0.5,1.3,1,2.2,1.5c0.9,0.5,1.8,1,2.8,1.6c1,0.5,2,1.2,2.8,1.9
	c0.9,0.7,1.6,1.6,2.2,2.6C194.1,111,194.4,112.1,194.4,113.5z"/>
<path class="st0" d="M214.1,116.1c-0.4,0.9-0.9,1.7-1.6,2.4c-0.7,0.7-1.5,1.2-2.4,1.6c-0.9,0.4-1.9,0.6-3,0.6h-0.4c-1,0-2-0.2-3-0.6
	c-0.9-0.4-1.7-0.9-2.4-1.6c-0.7-0.7-1.2-1.5-1.6-2.4c-0.4-0.9-0.6-1.9-0.6-3v-18c0-0.6,0.2-1.1,0.6-1.4c0.4-0.3,0.8-0.5,1.3-0.5
	c0.5,0,0.9,0.2,1.3,0.5c0.4,0.3,0.6,0.8,0.6,1.4v18c0,0.5,0.1,1,0.3,1.5c0.2,0.5,0.5,0.9,0.8,1.2c0.4,0.4,0.8,0.6,1.2,0.8
	c0.5,0.2,1,0.3,1.5,0.3h0.4c0.5,0,1-0.1,1.5-0.3c0.5-0.2,0.9-0.5,1.2-0.8c0.4-0.4,0.6-0.8,0.8-1.2c0.2-0.5,0.3-1,0.3-1.5v-18
	c0-0.6,0.2-1.1,0.6-1.4c0.4-0.3,0.8-0.5,1.3-0.5c0.5,0,0.9,0.2,1.3,0.5c0.4,0.3,0.6,0.8,0.6,1.4v18
	C214.7,114.2,214.5,115.2,214.1,116.1z"/>
<path class="st0" d="M238,119c0,0.5-0.2,0.9-0.5,1.3c-0.4,0.3-0.8,0.5-1.4,0.5c-0.4,0-0.7-0.1-1.1-0.3c-0.3-0.2-0.6-0.5-0.7-1
	l-1.6-5.2H224l-1.6,5.2c-0.1,0.5-0.4,0.8-0.7,1c-0.4,0.2-0.7,0.3-1.1,0.3c-0.6,0-1-0.2-1.4-0.5c-0.4-0.3-0.5-0.7-0.5-1.2
	c0-0.1,0-0.2,0-0.3c0-0.1,0-0.2,0.1-0.4l7.4-23.7c0.2-0.5,0.4-0.9,0.9-1.1c0.4-0.2,0.8-0.4,1.3-0.4c0.5,0,0.9,0.1,1.3,0.4
	c0.4,0.2,0.7,0.6,0.8,1.1l7.4,23.7c0,0.1,0,0.2,0.1,0.4C238,118.9,238,118.9,238,119z M228.4,100.1l-3.2,10.4h6.4L228.4,100.1z"/>
<path class="st0" d="M256.3,118.7c0,0.4-0.2,0.9-0.5,1.3c-0.3,0.4-0.8,0.6-1.4,0.6h-10.5c-0.5,0-1-0.2-1.3-0.6
	c-0.4-0.4-0.6-0.8-0.6-1.3V95.1c0-0.6,0.2-1.1,0.6-1.4c0.4-0.3,0.8-0.5,1.3-0.5c0.5,0,0.9,0.2,1.3,0.5c0.4,0.3,0.6,0.8,0.6,1.4v21.7
	h8.7c0.6,0,1.1,0.2,1.4,0.6C256.2,117.8,256.3,118.2,256.3,118.7z"/>
<path class="st0" d="M263.8,120.3c-0.4,0.3-0.8,0.5-1.3,0.5c-0.5,0-0.9-0.1-1.3-0.5c-0.4-0.3-0.6-0.8-0.6-1.4V95.1
	c0-0.6,0.2-1.1,0.6-1.4c0.4-0.3,0.8-0.5,1.3-0.5c0.5,0,0.9,0.2,1.3,0.5c0.4,0.3,0.6,0.8,0.6,1.4v23.8
	C264.4,119.5,264.2,120,263.8,120.3z"/>
<path class="st0" d="M284.3,118.7c0,0.5-0.2,0.9-0.5,1.3c-0.3,0.4-0.8,0.6-1.4,0.6h-11.3c-0.7,0-1.2-0.2-1.5-0.7
	c-0.4-0.4-0.5-0.9-0.5-1.5c0-0.3,0.1-0.7,0.2-1l10-20.2h-7.9c-0.6,0-1.1-0.2-1.4-0.6c-0.3-0.4-0.5-0.8-0.5-1.3
	c0-0.4,0.2-0.9,0.5-1.3c0.3-0.4,0.8-0.6,1.4-0.6H282c0.7,0,1.2,0.2,1.6,0.6c0.4,0.4,0.5,0.8,0.5,1.4c0,0.2,0,0.4-0.1,0.6
	c-0.1,0.2-0.2,0.4-0.3,0.6l-9.9,20.1h8.6c0.6,0,1.1,0.2,1.4,0.6C284.2,117.8,284.3,118.2,284.3,118.7z"/>
<path class="st0" d="M304.3,118.7c0,0.4-0.2,0.9-0.5,1.3c-0.3,0.4-0.8,0.6-1.4,0.6h-11.9c-0.5,0-0.9-0.2-1.3-0.6
	c-0.4-0.4-0.6-0.8-0.6-1.3V95.4c0-0.5,0.2-0.9,0.6-1.3c0.4-0.4,0.8-0.6,1.3-0.6h11.9c0.6,0,1.1,0.2,1.4,0.6c0.3,0.4,0.5,0.8,0.5,1.3
	c0,0.4-0.2,0.9-0.5,1.3c-0.3,0.4-0.8,0.6-1.4,0.6h-10v7.6h6.8c0.6,0,1.1,0.2,1.4,0.6c0.3,0.4,0.5,0.8,0.5,1.3c0,0.5-0.2,0.9-0.5,1.3
	c-0.3,0.4-0.8,0.6-1.4,0.6h-6.8v8.3h10c0.6,0,1.1,0.2,1.4,0.6C304.2,117.8,304.3,118.2,304.3,118.7z"/>
<path class="st0" d="M334.3,116.1c-0.4,0.9-0.9,1.7-1.6,2.4c-0.7,0.7-1.5,1.2-2.4,1.6c-0.9,0.4-1.9,0.6-3,0.6h-0.4c-1,0-2-0.2-3-0.6
	c-0.9-0.4-1.8-0.9-2.4-1.6c-0.7-0.7-1.2-1.5-1.6-2.4c-0.4-0.9-0.6-1.9-0.6-3v-12.5c0-1.1,0.2-2.1,0.6-3c0.4-0.9,1-1.7,1.6-2.4
	c0.7-0.7,1.5-1.2,2.4-1.6c0.9-0.4,1.9-0.6,3-0.6h0.4c1,0,2,0.2,2.9,0.5c0.9,0.3,1.7,0.8,2.4,1.3c0.7,0.5,1.2,1.2,1.6,1.9
	c0.4,0.7,0.7,1.5,0.7,2.4v0.2c0,0.6-0.2,1-0.6,1.3c-0.4,0.3-0.8,0.4-1.3,0.4c-0.4,0-0.8-0.1-1.2-0.4c-0.4-0.3-0.6-0.7-0.7-1.3
	c-0.1-0.9-0.5-1.6-1.3-2c-0.8-0.5-1.6-0.7-2.6-0.7h-0.4c-1.1,0-2,0.4-2.8,1.1c-0.7,0.7-1.1,1.6-1.1,2.7v12.5c0,0.5,0.1,1.1,0.3,1.5
	c0.2,0.5,0.5,0.9,0.8,1.2c0.4,0.3,0.8,0.6,1.2,0.8c0.5,0.2,1,0.3,1.5,0.3h0.4c0.5,0,1-0.1,1.5-0.3c0.5-0.2,0.9-0.5,1.2-0.8
	c0.4-0.3,0.6-0.8,0.8-1.2c0.2-0.5,0.3-1,0.3-1.5v-4h-3.2c-0.6,0-1.1-0.2-1.4-0.6c-0.3-0.4-0.5-0.8-0.5-1.3c0-0.5,0.2-0.9,0.5-1.3
	c0.3-0.4,0.8-0.6,1.4-0.6h5c0.5,0,1,0.2,1.4,0.5c0.4,0.4,0.6,0.8,0.6,1.3v5.9C334.9,114.2,334.7,115.2,334.3,116.1z"/>
<path class="st0" d="M354.9,106c-0.9,1.3-2.1,2.2-3.6,2.7l4.5,9.4c0.1,0.3,0.2,0.5,0.2,0.8c0,0.5-0.2,1-0.5,1.3
	c-0.4,0.4-0.8,0.5-1.5,0.5c-0.3,0-0.6-0.1-0.9-0.2c-0.3-0.2-0.5-0.4-0.7-0.8l-5.1-10.7h-3.2v9.8c0,0.6-0.2,1.1-0.6,1.4
	c-0.4,0.3-0.8,0.5-1.3,0.5c-0.5,0-0.9-0.1-1.3-0.5c-0.4-0.3-0.6-0.8-0.6-1.4V95.4c0-0.5,0.2-0.9,0.6-1.3c0.4-0.4,0.8-0.6,1.3-0.6
	h6.4c1.1,0,2.1,0.2,3,0.6c0.9,0.4,1.7,0.9,2.4,1.6c0.7,0.7,1.2,1.5,1.6,2.4c0.4,0.9,0.6,1.9,0.6,3v0.4
	C356.3,103.2,355.8,104.7,354.9,106z M352.5,101.1c0-0.5-0.1-1.1-0.3-1.5c-0.2-0.5-0.5-0.9-0.8-1.3c-0.3-0.4-0.7-0.6-1.2-0.8
	c-0.5-0.2-1-0.3-1.5-0.3h-4.6v8.2h4.7c1.1,0,2-0.4,2.7-1.1c0.7-0.7,1-1.7,1-2.8V101.1z"/>
<path class="st0" d="M378.3,119c0,0.5-0.2,0.9-0.5,1.3c-0.4,0.3-0.8,0.5-1.4,0.5c-0.4,0-0.7-0.1-1.1-0.3c-0.3-0.2-0.6-0.5-0.7-1
	l-1.6-5.2h-8.7l-1.6,5.2c-0.1,0.5-0.4,0.8-0.7,1c-0.4,0.2-0.7,0.3-1.1,0.3c-0.6,0-1-0.2-1.4-0.5c-0.4-0.3-0.5-0.7-0.5-1.2
	c0-0.1,0-0.2,0-0.3c0-0.1,0-0.2,0.1-0.4l7.4-23.7c0.2-0.5,0.4-0.9,0.9-1.1c0.4-0.2,0.8-0.4,1.3-0.4c0.5,0,0.9,0.1,1.3,0.4
	c0.4,0.2,0.7,0.6,0.8,1.1l7.4,23.7c0,0.1,0,0.2,0.1,0.4C378.2,118.9,378.3,118.9,378.3,119z M368.6,100.1l-3.2,10.4h6.4L368.6,100.1
	z"/>
<path class="st0" d="M397.9,101.1c0,1-0.2,2-0.5,3c-0.4,0.9-0.9,1.8-1.5,2.4c-0.7,0.7-1.4,1.2-2.3,1.6c-0.9,0.4-1.9,0.6-2.9,0.6H386
	v10.2c0,0.6-0.2,1.1-0.6,1.4c-0.4,0.3-0.8,0.5-1.3,0.5c-0.5,0-0.9-0.1-1.3-0.5c-0.4-0.3-0.6-0.8-0.6-1.4V95.4c0-0.5,0.2-0.9,0.5-1.3
	c0.4-0.4,0.8-0.6,1.3-0.6h6.4c1.1,0,2.1,0.2,2.9,0.6c0.9,0.4,1.7,0.9,2.3,1.6c0.7,0.7,1.2,1.5,1.5,2.4
	C397.7,99,397.9,100,397.9,101.1z M394.1,101.1c0-1.1-0.3-2-1-2.8c-0.7-0.7-1.5-1.1-2.6-1.1H386v7.8h4.5c1.1,0,2-0.4,2.6-1.1
	C393.8,103.1,394.1,102.2,394.1,101.1z"/>
<path class="st0" d="M416.7,120.3c-0.4,0.3-0.8,0.5-1.3,0.5c-0.5,0-0.9-0.1-1.3-0.5c-0.4-0.3-0.6-0.8-0.6-1.4v-10.4h-8.2v10.4
	c0,0.6-0.2,1.1-0.6,1.4c-0.4,0.3-0.8,0.5-1.3,0.5c-0.5,0-0.9-0.1-1.3-0.5c-0.4-0.3-0.6-0.8-0.6-1.4V95.1c0-0.6,0.2-1.1,0.6-1.4
	c0.4-0.3,0.8-0.5,1.3-0.5c0.5,0,0.9,0.2,1.3,0.5c0.4,0.3,0.6,0.8,0.6,1.4v9.6h8.2v-9.6c0-0.6,0.2-1.1,0.6-1.4
	c0.4-0.3,0.8-0.5,1.3-0.5c0.5,0,0.9,0.2,1.3,0.5c0.4,0.3,0.6,0.8,0.6,1.4v23.8C417.3,119.5,417.1,120,416.7,120.3z"/>
<path class="st0" d="M449.7,116c-0.4,0.9-0.9,1.7-1.6,2.4c-0.7,0.7-1.5,1.2-2.4,1.5c-0.9,0.4-1.9,0.5-3,0.5h-6.2
	c-0.5,0-0.9-0.2-1.3-0.6c-0.4-0.4-0.6-0.8-0.6-1.3V95.4c0-0.5,0.2-0.9,0.6-1.3c0.4-0.4,0.8-0.6,1.3-0.6h6.2c1.1,0,2.1,0.2,3,0.5
	c0.9,0.4,1.7,0.9,2.4,1.5c0.7,0.7,1.2,1.5,1.6,2.4c0.4,0.9,0.6,2,0.6,3.1v11.8C450.3,114.1,450.1,115.1,449.7,116z M446.6,101.1
	c0-0.5-0.1-1.1-0.3-1.5c-0.2-0.5-0.5-0.9-0.8-1.2c-0.4-0.4-0.8-0.6-1.2-0.8c-0.5-0.2-1-0.3-1.5-0.3h-4.3v19.6h4.3
	c0.5,0,1-0.1,1.5-0.3c0.5-0.2,0.9-0.5,1.2-0.8c0.4-0.4,0.6-0.8,0.8-1.3c0.2-0.5,0.3-1,0.3-1.5V101.1z"/>
<path class="st0" d="M473.2,119c0,0.5-0.2,0.9-0.5,1.3c-0.4,0.3-0.8,0.5-1.4,0.5c-0.4,0-0.7-0.1-1.1-0.3c-0.3-0.2-0.6-0.5-0.7-1
	l-1.6-5.2h-8.7l-1.6,5.2c-0.1,0.5-0.4,0.8-0.7,1c-0.4,0.2-0.7,0.3-1.1,0.3c-0.6,0-1-0.2-1.4-0.5c-0.4-0.3-0.5-0.7-0.5-1.2
	c0-0.1,0-0.2,0-0.3c0-0.1,0-0.2,0.1-0.4l7.4-23.7c0.2-0.5,0.4-0.9,0.9-1.1c0.4-0.2,0.8-0.4,1.3-0.4c0.5,0,0.9,0.1,1.3,0.4
	c0.4,0.2,0.7,0.6,0.8,1.1l7.4,23.7c0,0.1,0,0.2,0.1,0.4C473.2,118.9,473.2,118.9,473.2,119z M463.5,100.1l-3.2,10.4h6.4L463.5,100.1
	z"/>
<path class="st0" d="M487.9,95.4c0,0.4-0.2,0.9-0.5,1.3c-0.3,0.4-0.8,0.6-1.4,0.6h-3.7v21.7c0,0.6-0.2,1.1-0.6,1.4
	c-0.4,0.3-0.8,0.5-1.3,0.5c-0.5,0-0.9-0.1-1.3-0.5c-0.4-0.3-0.6-0.8-0.6-1.4V97.2h-3.7c-0.6,0-1.1-0.2-1.4-0.6
	c-0.3-0.4-0.5-0.8-0.5-1.3c0-0.5,0.2-0.9,0.5-1.3c0.3-0.4,0.8-0.6,1.4-0.6h11.2c0.6,0,1.1,0.2,1.4,0.6
	C487.8,94.5,487.9,94.9,487.9,95.4z"/>
<path class="st0" d="M508,119c0,0.5-0.2,0.9-0.5,1.3c-0.4,0.3-0.8,0.5-1.4,0.5c-0.4,0-0.7-0.1-1.1-0.3c-0.3-0.2-0.6-0.5-0.7-1
	l-1.6-5.2h-8.7l-1.6,5.2c-0.1,0.5-0.4,0.8-0.7,1c-0.4,0.2-0.7,0.3-1.1,0.3c-0.6,0-1-0.2-1.4-0.5c-0.4-0.3-0.5-0.7-0.5-1.2
	c0-0.1,0-0.2,0-0.3c0-0.1,0-0.2,0.1-0.4l7.4-23.7c0.2-0.5,0.4-0.9,0.9-1.1c0.4-0.2,0.8-0.4,1.3-0.4c0.5,0,0.9,0.1,1.3,0.4
	c0.4,0.2,0.7,0.6,0.8,1.1l7.4,23.7c0,0.1,0,0.2,0.1,0.4C508,118.9,508,118.9,508,119z M498.3,100.1l-3.2,10.4h6.4L498.3,100.1z"/>
<path class="st0" d="M539,118.7c0,0.4-0.2,0.9-0.5,1.3c-0.3,0.4-0.8,0.6-1.4,0.6h-11.9c-0.5,0-0.9-0.2-1.3-0.6
	c-0.4-0.4-0.6-0.8-0.6-1.3V95.4c0-0.5,0.2-0.9,0.6-1.3c0.4-0.4,0.8-0.6,1.3-0.6h11.9c0.6,0,1.1,0.2,1.4,0.6c0.3,0.4,0.5,0.8,0.5,1.3
	c0,0.4-0.2,0.9-0.5,1.3c-0.3,0.4-0.8,0.6-1.4,0.6h-10v7.6h6.8c0.6,0,1.1,0.2,1.4,0.6c0.3,0.4,0.5,0.8,0.5,1.3c0,0.5-0.2,0.9-0.5,1.3
	c-0.3,0.4-0.8,0.6-1.4,0.6h-6.8v8.3h10c0.6,0,1.1,0.2,1.4,0.6C538.9,117.8,539,118.2,539,118.7z"/>
<path class="st0" d="M560.4,119c0,0.5-0.2,0.9-0.5,1.3c-0.4,0.3-0.8,0.5-1.4,0.5c-0.4,0-0.7-0.1-1.1-0.3c-0.3-0.2-0.6-0.5-0.7-1
	l-1.6-5.2h-8.7l-1.6,5.2c-0.1,0.5-0.4,0.8-0.7,1c-0.4,0.2-0.7,0.3-1.1,0.3c-0.6,0-1-0.2-1.4-0.5c-0.4-0.3-0.5-0.7-0.5-1.2
	c0-0.1,0-0.2,0-0.3c0-0.1,0-0.2,0.1-0.4l7.4-23.7c0.2-0.5,0.4-0.9,0.9-1.1c0.4-0.2,0.8-0.4,1.3-0.4c0.5,0,0.9,0.1,1.3,0.4
	c0.4,0.2,0.7,0.6,0.8,1.1l7.4,23.7c0,0.1,0,0.2,0.1,0.4C560.4,118.9,560.4,118.9,560.4,119z M550.7,100.1l-3.2,10.4h6.4L550.7,100.1
	z"/>
<path class="st0" d="M578.9,113.5c0,1.1-0.2,2.1-0.6,3c-0.4,0.9-1,1.7-1.6,2.3c-0.7,0.6-1.5,1.1-2.5,1.5c-1,0.3-2,0.5-3.1,0.5h-0.4
	c-1,0-2-0.2-2.9-0.5c-0.9-0.3-1.7-0.8-2.5-1.5c-0.7-0.7-1.3-1.5-1.7-2.4c-0.4-0.9-0.6-2-0.6-3.2c0-0.6,0.2-1.1,0.6-1.4
	c0.4-0.3,0.8-0.5,1.3-0.5c0.5,0,0.9,0.2,1.3,0.5c0.4,0.3,0.6,0.8,0.6,1.4c0,1.3,0.4,2.2,1.1,2.9c0.7,0.7,1.7,1,2.8,1h0.4
	c1.2,0,2.1-0.3,2.9-0.9c0.8-0.6,1.1-1.5,1.1-2.7c0-0.9-0.3-1.7-0.9-2.3c-0.6-0.7-1.3-1.2-2.2-1.8c-0.9-0.5-1.8-1.1-2.8-1.6
	c-1-0.5-2-1.1-2.8-1.7c-0.9-0.6-1.6-1.4-2.2-2.2s-0.9-1.8-0.9-3v-0.7c0-1.1,0.2-2,0.7-2.9c0.4-0.8,1-1.6,1.7-2.2
	c0.7-0.6,1.5-1.1,2.4-1.4c0.9-0.3,1.8-0.5,2.7-0.5h0.4c0.9,0,1.9,0.1,2.7,0.4c0.9,0.2,1.7,0.6,2.4,1.1c0.7,0.5,1.2,1.1,1.7,1.9
	c0.4,0.8,0.6,1.6,0.6,2.6v0.2c0,0.5-0.2,0.9-0.5,1.3c-0.3,0.3-0.8,0.5-1.3,0.5c-0.5,0-1-0.2-1.3-0.5c-0.3-0.3-0.5-0.7-0.7-1.3
	c-0.2-1.1-0.6-1.8-1.2-2.1c-0.6-0.3-1.4-0.5-2.4-0.5h-0.4c-0.4,0-0.8,0.1-1.3,0.2c-0.4,0.1-0.8,0.3-1.2,0.6c-0.4,0.3-0.6,0.6-0.9,1
	c-0.2,0.4-0.3,0.8-0.3,1.3v0.8c0,0.6,0.3,1.2,0.9,1.7c0.6,0.5,1.3,1,2.2,1.5c0.9,0.5,1.8,1,2.8,1.6c1,0.5,2,1.2,2.8,1.9
	c0.9,0.7,1.6,1.6,2.2,2.6C578.6,111,578.9,112.1,578.9,113.5z"/>
<path class="st0" d="M587.1,120.3c-0.4,0.3-0.8,0.5-1.3,0.5c-0.5,0-0.9-0.1-1.3-0.5c-0.4-0.3-0.6-0.8-0.6-1.4V95.1
	c0-0.6,0.2-1.1,0.6-1.4c0.4-0.3,0.8-0.5,1.3-0.5c0.5,0,0.9,0.2,1.3,0.5c0.4,0.3,0.6,0.8,0.6,1.4v23.8
	C587.7,119.5,587.5,120,587.1,120.3z"/>
<path class="st0" d="M608.2,118.7c0,0.4-0.2,0.9-0.5,1.3c-0.3,0.4-0.8,0.6-1.4,0.6h-10.5c-0.5,0-1-0.2-1.3-0.6
	c-0.4-0.4-0.6-0.8-0.6-1.3V95.1c0-0.6,0.2-1.1,0.6-1.4c0.4-0.3,0.8-0.5,1.3-0.5c0.5,0,0.9,0.2,1.3,0.5c0.4,0.3,0.6,0.8,0.6,1.4v21.7
	h8.7c0.6,0,1.1,0.2,1.4,0.6C608.1,117.8,608.2,118.2,608.2,118.7z"/>
<path class="st0" d="M623.9,95.1c0,0.3-0.1,0.5-0.2,0.7l-5.9,14.2v8.8c0,0.6-0.2,1.1-0.6,1.4c-0.4,0.3-0.8,0.5-1.3,0.5
	c-0.5,0-0.9-0.1-1.3-0.5c-0.4-0.3-0.6-0.8-0.6-1.4v-8.8l-5.9-14.2c-0.1-0.2-0.2-0.4-0.2-0.7c0-0.5,0.2-1,0.5-1.3
	c0.4-0.4,0.8-0.5,1.4-0.5c0.3,0,0.7,0.1,1,0.3c0.3,0.2,0.5,0.5,0.7,0.9l4.3,10.4l4.3-10.4c0.2-0.4,0.4-0.7,0.7-0.9
	c0.3-0.2,0.6-0.3,1-0.3c0.6,0,1.1,0.2,1.4,0.5C623.7,94.1,623.9,94.6,623.9,95.1z"/>
<path class="st1" d="M375.3,62.9c-1.1,2.6-2.7,4.8-4.6,6.8c-1.9,1.9-4.2,3.4-6.8,4.5c-2.6,1.1-5.4,1.7-8.4,1.7h-1
	c-2.9,0-5.7-0.5-8.3-1.7c-2.6-1.1-4.9-2.6-6.8-4.5c-1.9-1.9-3.4-4.2-4.6-6.8c-1.1-2.6-1.7-5.3-1.7-8.3V7.2c0-2.1,0.6-3.6,1.9-4.6
	c1.3-1,2.7-1.5,4.3-1.5c1.6,0,3,0.5,4.3,1.5c1.3,1,1.9,2.6,1.9,4.6v47.4c0,2.5,0.9,4.6,2.6,6.4c1.7,1.8,3.9,2.7,6.3,2.7h1
	c2.5,0,4.6-0.9,6.4-2.7c1.8-1.8,2.7-3.9,2.7-6.4V7.1c0-2.1,0.6-3.6,1.9-4.6c1.3-1,2.7-1.5,4.3-1.5c1.6,0,3,0.5,4.3,1.5
	c1.3,1,1.9,2.6,1.9,4.6v47.4C377,57.5,376.4,60.3,375.3,62.9z"/>
<path class="st1" d="M431.6,35.8c-2.3,3.5-5.4,6-9.2,7.7l11.2,23.6c0.5,1.1,0.7,2,0.7,2.8c0,1.8-0.7,3.2-2,4.3
	c-1.4,1.1-2.8,1.7-4.5,1.7c-1.1,0-2.1-0.3-3-0.8c-1-0.5-1.7-1.4-2.3-2.7l-12.9-27.1h-6.4v24.5c0,2.1-0.6,3.6-1.9,4.6
	c-1.3,1-2.7,1.5-4.3,1.5c-1.6,0-3-0.5-4.3-1.5c-1.3-1-1.9-2.5-1.9-4.6V7.8c0-1.6,0.6-3.1,1.9-4.3c1.2-1.2,2.7-1.9,4.3-1.9h16.7
	c3,0,5.8,0.5,8.4,1.7c2.6,1.1,4.9,2.6,6.8,4.5c1.9,1.9,3.4,4.2,4.5,6.8c1.1,2.6,1.7,5.4,1.7,8.4v1C435.1,28.4,433.9,32.4,431.6,35.8
	z M422.7,22.9c0-2.5-0.8-4.6-2.5-6.4c-1.6-1.8-3.7-2.7-6.2-2.7h-10.9V33h11.2c2.4,0,4.4-0.9,6-2.7c1.6-1.8,2.3-3.9,2.3-6.4V22.9z"/>
<path class="st1" d="M457,74.3c-1.3,1-2.7,1.5-4.3,1.5c-1.6,0-3-0.5-4.3-1.5c-1.3-1-1.9-2.5-1.9-4.6V7.2c0-2.1,0.6-3.6,1.9-4.6
	c1.3-1,2.7-1.5,4.3-1.5c1.6,0,3,0.5,4.3,1.5c1.3,1,1.9,2.6,1.9,4.6v62.6C459,71.8,458.3,73.3,457,74.3z"/>
<path class="st1" d="M514.3,63.2c-1.1,2.6-2.6,4.8-4.5,6.7c-1.9,1.9-4.2,3.3-6.8,4.4c-2.6,1-5.4,1.5-8.4,1.5h-1
	c-2.9,0-5.7-0.5-8.3-1.6c-2.6-1.1-4.9-2.5-6.8-4.4c-1.9-1.8-3.4-4-4.6-6.6s-1.7-5.3-1.7-8.3V21.9c0-3,0.6-5.7,1.7-8.3
	s2.7-4.7,4.6-6.6c1.9-1.9,4.2-3.4,6.8-4.4c2.6-1.1,5.3-1.6,8.3-1.6h1c3,0,5.8,0.5,8.4,1.6c2.6,1.1,4.9,2.5,6.8,4.4
	c1.9,1.9,3.4,4.1,4.5,6.6c1.1,2.5,1.7,5.3,1.7,8.3v33C516,57.9,515.4,60.7,514.3,63.2z M503.6,21.9c0-2.5-0.9-4.5-2.6-6.2
	c-1.7-1.6-3.9-2.4-6.3-2.4h-1c-2.5,0-4.6,0.8-6.3,2.4c-1.7,1.6-2.6,3.7-2.6,6.2v33c0,2.5,0.9,4.6,2.6,6.2c1.7,1.7,3.9,2.5,6.3,2.5h1
	c2.5,0,4.6-0.8,6.3-2.4c1.7-1.6,2.6-3.7,2.6-6.2V21.9z"/>
<path class="st1" d="M570.7,62.9c-1.1,2.6-2.7,4.8-4.6,6.8c-1.9,1.9-4.2,3.4-6.8,4.5c-2.6,1.1-5.4,1.7-8.4,1.7h-1
	c-2.9,0-5.7-0.5-8.3-1.7c-2.6-1.1-4.9-2.6-6.8-4.5c-1.9-1.9-3.4-4.2-4.6-6.8c-1.1-2.6-1.7-5.3-1.7-8.3V7.2c0-2.1,0.6-3.6,1.9-4.6
	c1.3-1,2.7-1.5,4.3-1.5c1.6,0,3,0.5,4.3,1.5c1.3,1,1.9,2.6,1.9,4.6v47.4c0,2.5,0.9,4.6,2.6,6.4c1.7,1.8,3.9,2.7,6.3,2.7h1
	c2.5,0,4.6-0.9,6.4-2.7c1.8-1.8,2.7-3.9,2.7-6.4V7.1c0-2.1,0.6-3.6,1.9-4.6c1.3-1,2.7-1.5,4.3-1.5c1.6,0,3,0.5,4.3,1.5
	c1.3,1,1.9,2.6,1.9,4.6v47.4C572.4,57.5,571.8,60.3,570.7,62.9z"/>
<path class="st1" d="M627.3,55.6c0,3.1-0.6,5.8-1.7,8.3c-1.1,2.5-2.6,4.6-4.6,6.4c-2,1.8-4.2,3.1-6.9,4.1c-2.6,1-5.5,1.4-8.6,1.4h-1
	c-2.8,0-5.6-0.5-8.2-1.5c-2.6-1-4.9-2.4-6.9-4.2c-2-1.8-3.6-4.1-4.7-6.7c-1.1-2.6-1.7-5.6-1.7-9c0-2.1,0.6-3.6,1.9-4.6
	c1.3-1,2.7-1.5,4.3-1.5c1.6,0,3,0.5,4.3,1.5c1.3,1,1.9,2.6,1.9,4.6c0,3,0.8,5.2,2.5,6.8c1.7,1.5,3.9,2.3,6.6,2.3h1
	c2.7,0,4.9-0.7,6.7-2c1.8-1.3,2.7-3.4,2.7-6.1c0-2.2-0.8-4.1-2.3-5.8c-1.5-1.7-3.4-3.2-5.8-4.6c-2.3-1.4-4.8-2.8-7.5-4.3
	c-2.7-1.4-5.2-3-7.5-4.8c-2.3-1.8-4.2-3.9-5.8-6.2c-1.5-2.3-2.3-5.1-2.3-8.4v-2.2c0-2.9,0.6-5.5,1.9-7.7c1.3-2.2,2.9-4.1,5-5.7
	c2-1.6,4.3-2.7,6.7-3.6c2.4-0.8,4.8-1.2,7.2-1.2h1c2.8,0,5.4,0.4,7.9,1.2c2.5,0.8,4.7,2,6.6,3.5c1.9,1.5,3.5,3.3,4.6,5.4
	c1.1,2.1,1.7,4.4,1.7,7c0,2.1-0.7,3.6-2,4.5c-1.3,1-2.8,1.4-4.4,1.4c-1.5,0-2.9-0.5-4.1-1.4c-1.3-0.9-1.9-2.3-1.9-4.3
	c0-1.4-0.8-2.6-2.3-3.6c-1.6-1-3.6-1.5-6.2-1.5h-1c-2.3,0-4.3,0.6-5.9,1.8c-1.6,1.2-2.4,2.8-2.4,4.9v1.6c0,1.4,0.8,2.7,2.3,3.9
	c1.5,1.2,3.4,2.5,5.8,3.8c2.3,1.3,4.8,2.7,7.5,4.3c2.7,1.5,5.2,3.3,7.5,5.4c2.3,2.1,4.2,4.4,5.8,7.1
	C626.5,48.7,627.3,51.9,627.3,55.6z"/>
<path class="st0" d="M83.5,66.3L65.1,84.4c-2.3,2.3-4.5,3.5-6.5,3.7c-2,0.2-3.5-0.3-4.6-1.5c-1.1-1.2-1.4-2.8-1.1-4.9
	c0.3-2.1,1.6-4.3,3.9-6.5l18.3-18.1c2.3-2.3,4.4-3.5,6.4-3.6c2-0.1,3.5,0.4,4.5,1.5c1,1.2,1.5,2.8,1.2,4.8
	C87,61.9,85.8,64,83.5,66.3z"/>
<path class="st0" d="M60.1,114.9c-9.8,9.4-25.5,9-34.9-0.8c-9.4-9.8-9-25.5,0.8-34.9c9.8-9.4,25.5-9,34.9,0.8
	C70.3,89.9,69.9,105.5,60.1,114.9z M51.6,106c4.9-4.7,5.1-12.5,0.4-17.4c-4.7-4.9-12.5-5.1-17.4-0.4c-4.9,4.7-5.1,12.5-0.4,17.4
	C38.8,110.5,46.7,110.7,51.6,106z"/>
<path class="st0" d="M62.5,28.6l15.8,4.6c2,0.6,3.3,1.6,3.9,3.1c0.6,1.5,0.7,3,0.3,4.5c-0.4,1.5-1.3,2.7-2.7,3.7
	c-1.4,0.9-3,1.1-5,0.5L59,40.4c-2-0.6-3.3-1.6-3.9-3.1c-0.6-1.5-0.7-3-0.2-4.5c0.4-1.5,1.3-2.7,2.6-3.7C58.9,28.2,60.5,28,62.5,28.6
	z"/>
<path class="st0" d="M90.1,68.8c13.1,3.8,26.8-3.7,30.6-16.7c3.8-13.1-3.7-26.8-16.7-30.6C91,17.7,77.2,25.2,73.4,38.2
	C69.5,51.3,77.1,65,90.1,68.8z M85.2,41.7c1.9-6.5,8.8-10.3,15.3-8.4c6.5,1.9,10.3,8.8,8.4,15.3c-1.9,6.5-8.8,10.3-15.3,8.4
	C87.1,55.1,83.3,48.2,85.2,41.7z"/>
<path class="st1" d="M27.6,62.9l-3.9-16c-0.5-2-0.2-3.7,0.8-5c1-1.3,2.3-2.1,3.8-2.5c1.5-0.4,3-0.2,4.5,0.5c1.5,0.7,2.5,2.1,3,4.1
	l3.9,16c0.5,2,0.2,3.6-0.8,4.9c-1,1.3-2.3,2.1-3.8,2.5c-1.5,0.4-3,0.2-4.5-0.4C29.1,66.2,28.1,64.9,27.6,62.9z"/>
<g>
	<path class="st1" d="M0.7,30.5C-2.5,17.3,5.6,3.9,18.9,0.7c13.2-3.2,26.6,4.9,29.8,18.2c3.2,13.2-4.9,26.6-18.2,29.8
		C17.3,51.9,3.9,43.7,0.7,30.5z M12.7,27.6c1.6,6.6,8.3,10.7,14.9,9.1c6.6-1.6,10.7-8.3,9.1-14.9c-1.6-6.6-8.3-10.7-14.9-9.1
		C15.2,14.3,11.1,21,12.7,27.6z"/>
</g>
</svg>
