<?xml version="1.0" encoding="UTF-8" standalone="no"?>
<!-- Created with Inkscape (http://www.inkscape.org/) -->

<svg
   xmlns:dc="http://purl.org/dc/elements/1.1/"
   xmlns:cc="http://creativecommons.org/ns#"
   xmlns:rdf="http://www.w3.org/1999/02/22-rdf-syntax-ns#"
   xmlns:svg="http://www.w3.org/2000/svg"
   xmlns="http://www.w3.org/2000/svg"
   xmlns:sodipodi="http://sodipodi.sourceforge.net/DTD/sodipodi-0.dtd"
   xmlns:inkscape="http://www.inkscape.org/namespaces/inkscape"
   id="svg2"
   version="1.1"
   inkscape:version="0.91 r13725"
   xml:space="preserve"
   width="785.59125"
   height="274.95749"
   viewBox="0 0 785.59125 274.95749"
   sodipodi:docname="LINKURIOUS_LogoRVB2.svg"><metadata
     id="metadata8"><rdf:RDF><cc:Work
         rdf:about=""><dc:format>image/svg+xml</dc:format><dc:type
           rdf:resource="http://purl.org/dc/dcmitype/StillImage" /><dc:title></dc:title></cc:Work></rdf:RDF></metadata><defs
     id="defs6"><clipPath
       clipPathUnits="userSpaceOnUse"
       id="clipPath16"><path
         d="m 0,219.966 628.473,0 L 628.473,0 0,0 0,219.966 Z"
         id="path18"
         inkscape:connector-curvature="0" /></clipPath></defs><sodipodi:namedview
     pagecolor="#ffffff"
     bordercolor="#666666"
     borderopacity="1"
     objecttolerance="10"
     gridtolerance="10"
     guidetolerance="10"
     inkscape:pageopacity="0"
     inkscape:pageshadow="2"
     inkscape:window-width="1147"
     inkscape:window-height="588"
     id="namedview4"
     showgrid="false"
     inkscape:zoom="0.50280601"
     inkscape:cx="392.79562"
     inkscape:cy="137.47874"
     inkscape:window-x="0"
     inkscape:window-y="0"
     inkscape:window-maximized="0"
     inkscape:current-layer="g10" /><g
     id="g10"
     inkscape:groupmode="layer"
     inkscape:label="LINKURIOUS_LogoRVB"
     transform="matrix(1.25,0,0,-1.25,0,274.9575)"><g
       id="g12"><g
         id="g14"
         clip-path="url(#clipPath16)"><g
           id="g20"
           transform="translate(211.4692,103.2266)"><path
             d="m 0,0 c 0,-1.209 -0.418,-2.332 -1.252,-3.367 -0.836,-1.039 -2.09,-1.557 -3.76,-1.557 l -22.031,0 c -1.326,0 -2.492,0.504 -3.5,1.512 -1.008,1.008 -1.512,2.176 -1.512,3.5 l 0,50.197 c 0,1.672 0.519,2.923 1.556,3.759 1.036,0.834 2.188,1.252 3.456,1.252 1.266,0 2.419,-0.418 3.455,-1.252 1.037,-0.836 1.557,-2.087 1.557,-3.759 l 0,-45.271 17.019,0 c 1.67,0 2.924,-0.52 3.76,-1.557 C -0.418,2.422 0,1.27 0,0"
             style="fill:#1e1e32;fill-opacity:1;fill-rule:nonzero;stroke:none"
             id="path22"
             inkscape:connector-curvature="0" /></g><g
           id="g24"
           transform="translate(227.9712,99.082)"><path
             d="m 0,0 c -1.037,-0.807 -2.191,-1.211 -3.457,-1.211 -1.268,0 -2.419,0.404 -3.456,1.211 -1.036,0.805 -1.556,2.043 -1.556,3.715 l 0,50.714 c 0,1.672 0.52,2.924 1.556,3.76 1.037,0.834 2.188,1.252 3.456,1.252 1.266,0 2.42,-0.418 3.457,-1.252 1.035,-0.836 1.555,-2.088 1.555,-3.76 l 0,-50.714 C 1.555,2.043 1.035,0.805 0,0"
             style="fill:#1e1e32;fill-opacity:1;fill-rule:nonzero;stroke:none"
             id="path26"
             inkscape:connector-curvature="0" /></g><g
           id="g28"
           transform="translate(275.1885,99.3418)"><path
             d="m 0,0 c -1.01,-0.982 -2.176,-1.471 -3.5,-1.471 l -0.949,0 c -1.615,0 -2.795,0.418 -3.543,1.252 -0.75,0.834 -1.383,1.828 -1.901,2.983 l -13.91,32.312 0,-31.621 c 0,-1.672 -0.52,-2.91 -1.557,-3.715 -1.036,-0.806 -2.189,-1.211 -3.455,-1.211 -1.268,0 -2.42,0.405 -3.457,1.211 -1.037,0.805 -1.555,2.043 -1.555,3.715 l 0,50.714 c 0,1.325 0.504,2.493 1.512,3.5 1.008,1.008 2.174,1.512 3.5,1.512 l 1.123,0 c 1.611,0 2.793,-0.431 3.543,-1.297 0.747,-0.861 1.381,-1.869 1.9,-3.023 l 13.737,-31.104 0,30.5 c 0,1.67 0.52,2.909 1.555,3.715 1.037,0.807 2.189,1.209 3.457,1.209 1.266,0 2.42,-0.402 3.457,-1.209 1.035,-0.806 1.555,-2.045 1.555,-3.715 l 0,-50.802 C 1.512,2.131 1.006,0.977 0,0"
             style="fill:#1e1e32;fill-opacity:1;fill-rule:nonzero;stroke:none"
             id="path30"
             inkscape:connector-curvature="0" /></g><g
           id="g32"
           transform="translate(323.354,102.623)"><path
             d="m 0,0 c 0,-1.439 -0.533,-2.59 -1.598,-3.455 -1.066,-0.865 -2.261,-1.297 -3.586,-1.297 -0.863,0 -1.685,0.203 -2.462,0.606 -0.777,0.402 -1.426,1.123 -1.943,2.16 l -11.059,22.81 -4.752,-6.998 0,-13.652 c 0,-1.672 -0.519,-2.91 -1.557,-3.715 -1.037,-0.807 -2.189,-1.211 -3.455,-1.211 -1.267,0 -2.42,0.404 -3.457,1.211 -1.037,0.805 -1.554,2.043 -1.554,3.715 l 0,50.714 c 0,1.672 0.517,2.924 1.554,3.76 1.037,0.834 2.19,1.252 3.457,1.252 1.266,0 2.418,-0.418 3.455,-1.252 1.038,-0.836 1.557,-2.088 1.557,-3.76 l 0,-19.265 14.945,22.119 c 0.577,0.806 1.211,1.365 1.903,1.685 0.691,0.313 1.409,0.473 2.159,0.473 1.325,0 2.518,-0.473 3.584,-1.426 1.067,-0.949 1.6,-2.115 1.6,-3.498 0,-0.922 -0.318,-1.873 -0.951,-2.85 L -14.169,30.414 -0.518,2.334 C -0.172,1.584 0,0.807 0,0"
             style="fill:#1e1e32;fill-opacity:1;fill-rule:nonzero;stroke:none"
             id="path34"
             inkscape:connector-curvature="0" /></g><g
           id="g36"
           transform="translate(194.52,82.2539)"><path
             d="m 0,0 c 0,-0.213 -0.011,-0.35 -0.032,-0.414 l -4.639,-19.094 c -0.105,-0.445 -0.328,-0.773 -0.666,-0.984 -0.34,-0.213 -0.711,-0.319 -1.113,-0.319 -0.403,0 -0.774,0.106 -1.112,0.319 -0.338,0.211 -0.561,0.539 -0.667,0.984 l -4.639,19.094 c -0.021,0.064 -0.031,0.201 -0.031,0.414 0,0.424 0.148,0.779 0.445,1.064 0.296,0.286 0.678,0.43 1.143,0.43 0.296,0 0.582,-0.092 0.859,-0.271 0.274,-0.18 0.465,-0.483 0.571,-0.905 l 3.431,-14.615 3.431,14.615 c 0.106,0.422 0.297,0.725 0.573,0.905 0.275,0.179 0.56,0.271 0.857,0.271 0.467,0 0.848,-0.144 1.145,-0.43 C -0.148,0.779 0,0.424 0,0"
             style="fill:#1e1e32;fill-opacity:1;fill-rule:nonzero;stroke:none"
             id="path38"
             inkscape:connector-curvature="0" /></g><g
           id="g40"
           transform="translate(200.8745,61.8086)"><path
             d="m 0,0 c -0.317,-0.244 -0.667,-0.365 -1.049,-0.365 -0.381,0 -0.73,0.121 -1.048,0.365 -0.317,0.244 -0.476,0.619 -0.476,1.127 l 0,19.287 c 0,0.508 0.159,0.889 0.476,1.143 0.318,0.254 0.667,0.382 1.048,0.382 0.382,0 0.732,-0.128 1.049,-0.382 0.318,-0.254 0.477,-0.635 0.477,-1.143 l 0,-19.287 C 0.477,0.619 0.318,0.244 0,0"
             style="fill:#1e1e32;fill-opacity:1;fill-rule:nonzero;stroke:none"
             id="path42"
             inkscape:connector-curvature="0" /></g><g
           id="g44"
           transform="translate(218.1909,67.3203)"><path
             d="m 0,0 c 0,-0.889 -0.165,-1.699 -0.493,-2.43 -0.329,-0.73 -0.774,-1.349 -1.335,-1.859 -0.561,-0.508 -1.229,-0.9 -2.001,-1.176 -0.774,-0.273 -1.605,-0.412 -2.494,-0.412 l -0.318,0 c -0.826,0 -1.615,0.139 -2.367,0.418 -0.752,0.277 -1.414,0.684 -1.986,1.219 -0.571,0.535 -1.022,1.185 -1.35,1.951 -0.329,0.764 -0.492,1.633 -0.492,2.607 0,0.508 0.158,0.891 0.477,1.145 0.317,0.254 0.666,0.381 1.047,0.381 0.382,0 0.732,-0.127 1.048,-0.381 0.319,-0.254 0.478,-0.637 0.478,-1.145 0,-1.017 0.296,-1.8 0.89,-2.351 0.591,-0.551 1.344,-0.826 2.255,-0.826 l 0.318,0 c 0.953,0 1.736,0.244 2.35,0.73 0.616,0.486 0.922,1.205 0.922,2.156 0,0.741 -0.238,1.375 -0.715,1.905 -0.476,0.527 -1.07,1.007 -1.779,1.441 -0.71,0.434 -1.476,0.857 -2.303,1.27 -0.826,0.412 -1.594,0.873 -2.304,1.38 -0.709,0.506 -1.303,1.1 -1.78,1.776 -0.476,0.676 -0.714,1.49 -0.714,2.443 l 0,0.571 c 0,0.867 0.179,1.644 0.541,2.33 0.359,0.687 0.826,1.275 1.398,1.761 0.571,0.487 1.217,0.862 1.937,1.125 0.72,0.266 1.44,0.399 2.161,0.399 l 0.286,0 c 0.762,0 1.504,-0.102 2.223,-0.303 0.721,-0.201 1.362,-0.504 1.923,-0.906 0.561,-0.403 1.011,-0.91 1.351,-1.524 0.338,-0.615 0.508,-1.324 0.508,-2.129 l 0,-0.191 c 0,-0.424 -0.139,-0.768 -0.413,-1.033 -0.276,-0.264 -0.625,-0.397 -1.048,-0.397 -0.446,0 -0.795,0.127 -1.049,0.381 -0.254,0.254 -0.435,0.594 -0.541,1.018 -0.19,0.867 -0.519,1.429 -0.985,1.683 -0.465,0.254 -1.123,0.381 -1.969,0.381 l -0.286,0 c -0.339,0 -0.689,-0.053 -1.049,-0.158 -0.36,-0.107 -0.683,-0.266 -0.969,-0.477 -0.285,-0.212 -0.519,-0.472 -0.699,-0.779 -0.18,-0.306 -0.27,-0.65 -0.27,-1.031 l 0,-0.637 c 0,-0.508 0.239,-0.963 0.715,-1.365 C -8.404,8.559 -7.812,8.154 -7.102,7.754 -6.393,7.35 -5.624,6.928 -4.799,6.482 -3.973,6.037 -3.205,5.518 -2.494,4.926 -1.785,4.332 -1.191,3.639 -0.715,2.844 -0.238,2.051 0,1.102 0,0"
             style="fill:#1e1e32;fill-opacity:1;fill-rule:nonzero;stroke:none"
             id="path46"
             inkscape:connector-curvature="0" /></g><g
           id="g48"
           transform="translate(234.187,65.209)"><path
             d="m 0,0 c -0.328,-0.752 -0.768,-1.41 -1.318,-1.971 -0.551,-0.56 -1.203,-1 -1.953,-1.318 -0.752,-0.318 -1.563,-0.477 -2.432,-0.477 l -0.317,0 c -0.847,0 -1.648,0.159 -2.399,0.477 -0.752,0.318 -1.409,0.758 -1.97,1.318 -0.561,0.561 -1.006,1.219 -1.334,1.971 -0.329,0.75 -0.493,1.551 -0.493,2.398 l 0,14.616 c 0,0.507 0.159,0.888 0.477,1.142 0.317,0.254 0.667,0.383 1.049,0.383 0.38,0 0.73,-0.129 1.047,-0.383 0.319,-0.254 0.477,-0.635 0.477,-1.142 l 0,-14.616 c 0,-0.423 0.085,-0.826 0.254,-1.207 0.17,-0.382 0.398,-0.714 0.683,-1.002 0.287,-0.285 0.62,-0.513 1.001,-0.683 0.382,-0.168 0.794,-0.254 1.24,-0.254 l 0.285,0 c 0.424,0 0.826,0.086 1.208,0.254 0.382,0.17 0.715,0.398 1.001,0.683 0.285,0.288 0.514,0.62 0.683,1.002 0.168,0.381 0.254,0.784 0.254,1.207 l 0,14.616 c 0,0.507 0.159,0.888 0.477,1.142 0.317,0.254 0.667,0.383 1.049,0.383 0.381,0 0.73,-0.129 1.048,-0.383 0.317,-0.254 0.476,-0.635 0.476,-1.142 l 0,-14.616 C 0.493,1.551 0.328,0.75 0,0"
             style="fill:#1e1e32;fill-opacity:1;fill-rule:nonzero;stroke:none"
             id="path50"
             inkscape:connector-curvature="0" /></g><g
           id="g52"
           transform="translate(245.7358,78.1543)"><path
             d="m 0,0 -2.573,-8.418 5.147,0 L 0,0 Z m 7.848,-15.281 c 0,-0.424 -0.143,-0.768 -0.429,-1.033 -0.286,-0.264 -0.662,-0.397 -1.128,-0.397 -0.297,0 -0.582,0.084 -0.857,0.254 -0.276,0.17 -0.477,0.445 -0.604,0.826 l -1.303,4.193 -7.053,0 -1.271,-4.193 c -0.106,-0.381 -0.307,-0.656 -0.603,-0.826 -0.297,-0.17 -0.594,-0.254 -0.891,-0.254 -0.466,0 -0.842,0.133 -1.127,0.397 -0.286,0.265 -0.43,0.599 -0.43,1.001 0,0.063 0.006,0.137 0.016,0.223 0.012,0.084 0.027,0.18 0.049,0.285 l 6.036,19.19 c 0.127,0.402 0.36,0.705 0.699,0.906 0.339,0.201 0.689,0.303 1.048,0.303 0.382,0 0.736,-0.096 1.064,-0.287 0.329,-0.19 0.557,-0.498 0.684,-0.922 l 6.037,-19.19 c 0.02,-0.105 0.036,-0.201 0.047,-0.285 0.011,-0.086 0.016,-0.148 0.016,-0.191"
             style="fill:#1e1e32;fill-opacity:1;fill-rule:nonzero;stroke:none"
             id="path54"
             inkscape:connector-curvature="0" /></g><g
           id="g56"
           transform="translate(268.4209,63.0957)"><path
             d="m 0,0 c 0,-0.361 -0.127,-0.699 -0.381,-1.018 -0.254,-0.316 -0.637,-0.476 -1.144,-0.476 l -8.532,0 c -0.427,0 -0.791,0.154 -1.091,0.461 -0.299,0.306 -0.45,0.662 -0.45,1.064 l 0,19.096 c 0,0.508 0.162,0.889 0.483,1.143 0.32,0.253 0.674,0.382 1.058,0.382 0.387,0 0.735,-0.129 1.045,-0.382 0.311,-0.254 0.465,-0.635 0.465,-1.143 l 0,-17.602 7.022,0 c 0.507,0 0.89,-0.16 1.144,-0.476 C -0.127,0.73 0,0.381 0,0"
             style="fill:#1e1e32;fill-opacity:1;fill-rule:nonzero;stroke:none"
             id="path58"
             inkscape:connector-curvature="0" /></g><g
           id="g60"
           transform="translate(274.4893,61.8086)"><path
             d="m 0,0 c -0.318,-0.244 -0.668,-0.365 -1.049,-0.365 -0.381,0 -0.73,0.121 -1.049,0.365 -0.316,0.244 -0.476,0.619 -0.476,1.127 l 0,19.287 c 0,0.508 0.16,0.889 0.476,1.143 0.319,0.254 0.668,0.382 1.049,0.382 0.381,0 0.731,-0.128 1.049,-0.382 0.318,-0.254 0.477,-0.635 0.477,-1.143 l 0,-19.287 C 0.477,0.619 0.318,0.244 0,0"
             style="fill:#1e1e32;fill-opacity:1;fill-rule:nonzero;stroke:none"
             id="path62"
             inkscape:connector-curvature="0" /></g><g
           id="g64"
           transform="translate(291.1064,63.127)"><path
             d="m 0,0 c 0,-0.381 -0.127,-0.73 -0.383,-1.049 -0.254,-0.316 -0.635,-0.476 -1.142,-0.476 l -9.182,0 c -0.531,0 -0.943,0.179 -1.24,0.541 -0.297,0.359 -0.446,0.761 -0.446,1.207 0,0.275 0.065,0.539 0.192,0.795 l 8.07,16.394 -6.387,0 c -0.507,0 -0.888,0.158 -1.142,0.477 -0.256,0.316 -0.383,0.666 -0.383,1.047 0,0.361 0.127,0.699 0.383,1.017 0.254,0.318 0.635,0.477 1.142,0.477 l 8.612,0 c 0.57,0 1.006,-0.155 1.302,-0.461 0.295,-0.307 0.444,-0.672 0.444,-1.096 0,-0.17 -0.026,-0.346 -0.078,-0.525 -0.055,-0.18 -0.123,-0.354 -0.207,-0.524 l -8.039,-16.33 6.959,0 c 0.507,0 0.888,-0.16 1.142,-0.476 C -0.127,0.699 0,0.359 0,0"
             style="fill:#1e1e32;fill-opacity:1;fill-rule:nonzero;stroke:none"
             id="path66"
             inkscape:connector-curvature="0" /></g><g
           id="g68"
           transform="translate(307.3096,63.0957)"><path
             d="m 0,0 c 0,-0.361 -0.127,-0.699 -0.381,-1.018 -0.256,-0.316 -0.637,-0.476 -1.144,-0.476 l -9.659,0 c -0.402,0 -0.757,0.154 -1.064,0.461 -0.309,0.306 -0.461,0.662 -0.461,1.064 l 0,18.905 c 0,0.402 0.152,0.757 0.461,1.064 0.307,0.307 0.662,0.461 1.064,0.461 l 9.659,0 c 0.507,0 0.888,-0.158 1.144,-0.477 C -0.127,19.666 0,19.316 0,18.936 c 0,-0.36 -0.127,-0.7 -0.381,-1.016 -0.256,-0.318 -0.637,-0.477 -1.144,-0.477 l -8.133,0 0,-6.132 5.527,0 c 0.508,0 0.891,-0.155 1.145,-0.461 0.254,-0.307 0.381,-0.651 0.381,-1.034 0,-0.38 -0.127,-0.73 -0.381,-1.046 C -3.24,8.451 -3.623,8.293 -4.131,8.293 l -5.527,0 0,-6.768 8.133,0 c 0.507,0 0.888,-0.16 1.144,-0.476 C -0.127,0.73 0,0.381 0,0"
             style="fill:#1e1e32;fill-opacity:1;fill-rule:nonzero;stroke:none"
             id="path70"
             inkscape:connector-curvature="0" /></g><g
           id="g72"
           transform="translate(331.5669,65.1758)"><path
             d="m 0,0 c -0.328,-0.752 -0.768,-1.402 -1.318,-1.953 -0.551,-0.551 -1.203,-0.985 -1.955,-1.303 -0.752,-0.318 -1.563,-0.476 -2.43,-0.476 l -0.318,0 c -0.848,0 -1.653,0.154 -2.415,0.461 -0.763,0.306 -1.419,0.73 -1.97,1.269 -0.551,0.541 -0.99,1.182 -1.319,1.924 -0.328,0.74 -0.492,1.545 -0.492,2.414 l 0,10.166 c 0,0.869 0.164,1.67 0.492,2.4 0.329,0.731 0.774,1.371 1.334,1.922 0.563,0.551 1.219,0.979 1.971,1.287 0.752,0.307 1.551,0.461 2.399,0.461 l 0.318,0 c 0.826,0 1.598,-0.133 2.318,-0.398 0.721,-0.266 1.356,-0.619 1.908,-1.065 0.549,-0.445 0.995,-0.968 1.334,-1.572 0.338,-0.603 0.539,-1.256 0.604,-1.953 l 0,-0.16 c 0,-0.486 -0.154,-0.848 -0.461,-1.08 -0.307,-0.233 -0.652,-0.35 -1.033,-0.35 -0.338,0 -0.656,0.106 -0.953,0.319 -0.297,0.21 -0.477,0.56 -0.539,1.048 -0.086,0.719 -0.44,1.266 -1.065,1.635 -0.625,0.371 -1.33,0.557 -2.113,0.557 l -0.318,0 c -0.889,0 -1.637,-0.285 -2.241,-0.856 -0.603,-0.572 -0.904,-1.301 -0.904,-2.187 l 0,-10.149 c 0,-0.443 0.078,-0.855 0.238,-1.236 0.158,-0.381 0.381,-0.703 0.666,-0.967 0.287,-0.265 0.619,-0.476 1.002,-0.635 0.381,-0.158 0.793,-0.238 1.239,-0.238 l 0.318,0 c 0.424,0 0.826,0.084 1.207,0.254 0.381,0.168 0.715,0.395 1,0.68 0.287,0.283 0.514,0.621 0.683,1.011 0.17,0.389 0.254,0.795 0.254,1.217 l 0,3.256 -2.572,0 c -0.51,0 -0.89,0.16 -1.144,0.477 -0.254,0.318 -0.381,0.668 -0.381,1.049 0,0.38 0.127,0.724 0.381,1.033 0.254,0.306 0.634,0.461 1.144,0.461 l 4.067,0 c 0.423,0 0.789,-0.149 1.095,-0.446 C 0.338,7.98 0.492,7.621 0.492,7.197 l 0,-4.765 C 0.492,1.562 0.328,0.752 0,0"
             style="fill:#1e1e32;fill-opacity:1;fill-rule:nonzero;stroke:none"
             id="path74"
             inkscape:connector-curvature="0" /></g><g
           id="g76"
           transform="translate(346.356,77.3613)"><path
             d="m 0,0 c 0,0.445 -0.078,0.863 -0.238,1.254 -0.158,0.392 -0.369,0.732 -0.635,1.017 -0.266,0.286 -0.582,0.508 -0.953,0.668 -0.371,0.159 -0.779,0.239 -1.223,0.239 l -3.75,0 0,-6.61 3.781,0 c 0.891,0 1.616,0.301 2.176,0.907 C -0.279,-1.922 0,-1.176 0,-0.287 L 0,0 Z M 1.939,-3.939 C 1.197,-5 0.223,-5.74 -0.984,-6.164 l 3.623,-7.594 c 0.105,-0.211 0.158,-0.433 0.158,-0.668 0,-0.424 -0.149,-0.777 -0.445,-1.062 -0.297,-0.287 -0.688,-0.43 -1.176,-0.43 -0.254,0 -0.498,0.063 -0.731,0.191 -0.232,0.127 -0.424,0.338 -0.572,0.635 l -4.098,8.643 -2.574,0 0,-7.977 c 0,-0.508 -0.154,-0.883 -0.461,-1.127 -0.306,-0.244 -0.65,-0.365 -1.031,-0.365 -0.402,0 -0.764,0.121 -1.082,0.365 -0.316,0.244 -0.477,0.619 -0.477,1.127 l 0,19.096 c 0,0.402 0.155,0.758 0.461,1.064 0.309,0.307 0.662,0.461 1.065,0.461 l 5.179,0 c 0.87,0 1.678,-0.164 2.43,-0.492 C 0.037,5.375 0.689,4.936 1.24,4.385 1.791,3.834 2.23,3.182 2.559,2.43 2.887,1.678 3.051,0.867 3.051,0 l 0,-0.287 c 0,-1.377 -0.371,-2.594 -1.112,-3.652"
             style="fill:#1e1e32;fill-opacity:1;fill-rule:nonzero;stroke:none"
             id="path78"
             inkscape:connector-curvature="0" /></g><g
           id="g80"
           transform="translate(359.3813,78.1543)"><path
             d="m 0,0 -2.572,-8.418 5.146,0 L 0,0 Z m 7.848,-15.281 c 0,-0.424 -0.143,-0.768 -0.428,-1.033 -0.287,-0.264 -0.662,-0.397 -1.129,-0.397 -0.297,0 -0.582,0.084 -0.857,0.254 -0.276,0.17 -0.477,0.445 -0.604,0.826 l -1.303,4.193 -7.052,0 -1.272,-4.193 c -0.105,-0.381 -0.307,-0.656 -0.603,-0.826 -0.297,-0.17 -0.594,-0.254 -0.889,-0.254 -0.467,0 -0.844,0.133 -1.129,0.397 -0.285,0.265 -0.43,0.599 -0.43,1.001 0,0.063 0.006,0.137 0.018,0.223 0.01,0.084 0.025,0.18 0.047,0.285 l 6.037,19.19 c 0.127,0.402 0.359,0.705 0.699,0.906 0.338,0.201 0.688,0.303 1.047,0.303 0.383,0 0.736,-0.096 1.064,-0.287 0.329,-0.19 0.557,-0.498 0.684,-0.922 l 6.037,-19.19 c 0.022,-0.105 0.037,-0.201 0.047,-0.285 0.012,-0.086 0.016,-0.148 0.016,-0.191"
             style="fill:#1e1e32;fill-opacity:1;fill-rule:nonzero;stroke:none"
             id="path82"
             inkscape:connector-curvature="0" /></g><g
           id="g84"
           transform="translate(380.0649,77.3926)"><path
             d="m 0,0 c 0,0.891 -0.264,1.637 -0.793,2.24 -0.531,0.604 -1.24,0.906 -2.129,0.906 l -3.623,0 0,-6.324 3.623,0 c 0.889,0 1.598,0.307 2.129,0.922 C -0.264,-1.641 0,-0.889 0,0 M 3.051,0 C 3.051,-0.848 2.902,-1.652 2.605,-2.414 2.309,-3.178 1.891,-3.834 1.352,-4.385 0.811,-4.936 0.18,-5.375 -0.539,-5.703 -1.26,-6.031 -2.055,-6.195 -2.922,-6.195 l -3.623,0 0,-8.262 c 0,-0.508 -0.158,-0.883 -0.476,-1.127 -0.317,-0.244 -0.666,-0.365 -1.049,-0.365 -0.381,0 -0.731,0.121 -1.047,0.365 -0.319,0.244 -0.477,0.619 -0.477,1.127 l 0,19.096 c 0,0.402 0.147,0.757 0.444,1.064 0.296,0.307 0.656,0.461 1.08,0.461 l 5.148,0 c 0.867,0 1.662,-0.158 2.383,-0.477 C 0.18,5.369 0.811,4.93 1.352,4.369 1.891,3.807 2.309,3.156 2.605,2.414 2.902,1.674 3.051,0.869 3.051,0"
             style="fill:#1e1e32;fill-opacity:1;fill-rule:nonzero;stroke:none"
             id="path86"
             inkscape:connector-curvature="0" /></g><g
           id="g88"
           transform="translate(398.4302,61.8086)"><path
             d="m 0,0 c -0.318,-0.244 -0.668,-0.365 -1.049,-0.365 -0.402,0 -0.758,0.121 -1.064,0.365 -0.307,0.244 -0.461,0.619 -0.461,1.127 l 0,8.453 -6.608,0 0,-8.453 c 0,-0.508 -0.16,-0.883 -0.476,-1.127 -0.319,-0.244 -0.668,-0.365 -1.049,-0.365 -0.381,0 -0.731,0.121 -1.049,0.365 -0.318,0.244 -0.476,0.619 -0.476,1.127 l 0,19.287 c 0,0.508 0.158,0.889 0.476,1.143 0.318,0.254 0.668,0.382 1.049,0.382 0.381,0 0.73,-0.128 1.049,-0.382 0.316,-0.254 0.476,-0.635 0.476,-1.143 l 0,-7.816 6.608,0 0,7.816 c 0,0.508 0.16,0.889 0.476,1.143 0.319,0.254 0.668,0.382 1.049,0.382 0.381,0 0.731,-0.128 1.049,-0.382 0.318,-0.254 0.477,-0.635 0.477,-1.143 l 0,-19.287 C 0.477,0.619 0.318,0.244 0,0"
             style="fill:#1e1e32;fill-opacity:1;fill-rule:nonzero;stroke:none"
             id="path90"
             inkscape:connector-curvature="0" /></g><g
           id="g92"
           transform="translate(422.6079,77.3613)"><path
             d="m 0,0 c 0,0.445 -0.086,0.857 -0.254,1.238 -0.17,0.381 -0.398,0.715 -0.683,1.002 -0.286,0.285 -0.62,0.512 -1,0.682 -0.383,0.17 -0.786,0.256 -1.209,0.256 l -3.463,0 0,-15.918 3.463,0 c 0.423,0 0.826,0.084 1.209,0.254 0.38,0.168 0.714,0.396 1,0.683 0.285,0.285 0.513,0.623 0.683,1.016 C -0.086,-10.395 0,-9.988 0,-9.564 L 0,0 Z M 2.557,-12.105 C 2.229,-12.867 1.789,-13.52 1.238,-14.059 0.687,-14.6 0.037,-15.018 -0.715,-15.314 -1.467,-15.611 -2.277,-15.76 -3.146,-15.76 l -4.989,0 c -0.402,0 -0.756,0.155 -1.064,0.461 -0.307,0.307 -0.459,0.662 -0.459,1.065 l 0,18.904 c 0,0.402 0.152,0.758 0.459,1.064 0.308,0.307 0.662,0.461 1.064,0.461 l 4.989,0 c 0.869,0 1.679,-0.148 2.431,-0.445 C 0.037,5.453 0.687,5.035 1.238,4.496 1.789,3.955 2.229,3.305 2.557,2.541 2.885,1.779 3.049,0.932 3.049,0 l 0,-9.564 c 0,-0.932 -0.164,-1.78 -0.492,-2.541"
             style="fill:#1e1e32;fill-opacity:1;fill-rule:nonzero;stroke:none"
             id="path94"
             inkscape:connector-curvature="0" /></g><g
           id="g96"
           transform="translate(436.3325,78.1543)"><path
             d="m 0,0 -2.572,-8.418 5.146,0 L 0,0 Z m 7.848,-15.281 c 0,-0.424 -0.143,-0.768 -0.428,-1.033 -0.287,-0.264 -0.662,-0.397 -1.129,-0.397 -0.297,0 -0.582,0.084 -0.857,0.254 -0.276,0.17 -0.477,0.445 -0.604,0.826 l -1.303,4.193 -7.052,0 -1.272,-4.193 c -0.105,-0.381 -0.307,-0.656 -0.603,-0.826 -0.297,-0.17 -0.594,-0.254 -0.889,-0.254 -0.467,0 -0.844,0.133 -1.129,0.397 -0.285,0.265 -0.43,0.599 -0.43,1.001 0,0.063 0.006,0.137 0.018,0.223 0.01,0.084 0.025,0.18 0.047,0.285 l 6.037,19.19 c 0.127,0.402 0.359,0.705 0.699,0.906 0.338,0.201 0.688,0.303 1.047,0.303 0.383,0 0.736,-0.096 1.064,-0.287 0.329,-0.19 0.557,-0.498 0.684,-0.922 l 6.037,-19.19 c 0.022,-0.105 0.037,-0.201 0.047,-0.285 0.012,-0.086 0.016,-0.148 0.016,-0.191"
             style="fill:#1e1e32;fill-opacity:1;fill-rule:nonzero;stroke:none"
             id="path98"
             inkscape:connector-curvature="0" /></g><g
           id="g100"
           transform="translate(456.1274,82.0313)"><path
             d="m 0,0 c 0,-0.359 -0.127,-0.699 -0.381,-1.016 -0.256,-0.318 -0.637,-0.476 -1.144,-0.476 l -3.018,0 0,-17.604 c 0,-0.508 -0.16,-0.883 -0.477,-1.127 -0.318,-0.244 -0.667,-0.365 -1.048,-0.365 -0.381,0 -0.731,0.121 -1.049,0.365 -0.319,0.244 -0.477,0.619 -0.477,1.127 l 0,17.604 -3.017,0 c -0.51,0 -0.891,0.158 -1.145,0.476 -0.254,0.317 -0.381,0.657 -0.381,1.016 0,0.381 0.127,0.73 0.381,1.049 0.254,0.318 0.635,0.476 1.145,0.476 l 9.086,0 c 0.507,0 0.888,-0.158 1.144,-0.476 C -0.127,0.73 0,0.381 0,0"
             style="fill:#1e1e32;fill-opacity:1;fill-rule:nonzero;stroke:none"
             id="path102"
             inkscape:connector-curvature="0" /></g><g
           id="g104"
           transform="translate(464.5142,78.1543)"><path
             d="m 0,0 -2.572,-8.418 5.146,0 L 0,0 Z m 7.848,-15.281 c 0,-0.424 -0.143,-0.768 -0.428,-1.033 -0.287,-0.264 -0.662,-0.397 -1.129,-0.397 -0.297,0 -0.582,0.084 -0.857,0.254 -0.276,0.17 -0.477,0.445 -0.604,0.826 l -1.303,4.193 -7.052,0 -1.272,-4.193 c -0.105,-0.381 -0.307,-0.656 -0.603,-0.826 -0.297,-0.17 -0.594,-0.254 -0.889,-0.254 -0.467,0 -0.844,0.133 -1.129,0.397 -0.285,0.265 -0.43,0.599 -0.43,1.001 0,0.063 0.006,0.137 0.018,0.223 0.01,0.084 0.025,0.18 0.047,0.285 l 6.037,19.19 c 0.127,0.402 0.359,0.705 0.699,0.906 0.338,0.201 0.688,0.303 1.047,0.303 0.383,0 0.736,-0.096 1.064,-0.287 0.329,-0.19 0.557,-0.498 0.684,-0.922 l 6.037,-19.19 c 0.022,-0.105 0.037,-0.201 0.047,-0.285 0.012,-0.086 0.016,-0.148 0.016,-0.191"
             style="fill:#1e1e32;fill-opacity:1;fill-rule:nonzero;stroke:none"
             id="path106"
             inkscape:connector-curvature="0" /></g><g
           id="g108"
           transform="translate(497.5259,63.0957)"><path
             d="m 0,0 c 0,-0.361 -0.127,-0.699 -0.381,-1.018 -0.254,-0.316 -0.637,-0.476 -1.144,-0.476 l -9.659,0 c -0.402,0 -0.757,0.154 -1.064,0.461 -0.307,0.306 -0.461,0.662 -0.461,1.064 l 0,18.905 c 0,0.402 0.154,0.757 0.461,1.064 0.307,0.307 0.662,0.461 1.064,0.461 l 9.659,0 c 0.507,0 0.89,-0.158 1.144,-0.477 C -0.127,19.666 0,19.316 0,18.936 c 0,-0.36 -0.127,-0.7 -0.381,-1.016 -0.254,-0.318 -0.637,-0.477 -1.144,-0.477 l -8.133,0 0,-6.132 5.527,0 c 0.508,0 0.891,-0.155 1.145,-0.461 0.254,-0.307 0.381,-0.651 0.381,-1.034 0,-0.38 -0.127,-0.73 -0.381,-1.046 C -3.24,8.451 -3.623,8.293 -4.131,8.293 l -5.527,0 0,-6.768 8.133,0 c 0.507,0 0.89,-0.16 1.144,-0.476 C -0.127,0.73 0,0.381 0,0"
             style="fill:#1e1e32;fill-opacity:1;fill-rule:nonzero;stroke:none"
             id="path110"
             inkscape:connector-curvature="0" /></g><g
           id="g112"
           transform="translate(506.9927,78.1543)"><path
             d="m 0,0 -2.572,-8.418 5.146,0 L 0,0 Z m 7.848,-15.281 c 0,-0.424 -0.143,-0.768 -0.428,-1.033 -0.287,-0.264 -0.662,-0.397 -1.129,-0.397 -0.297,0 -0.582,0.084 -0.857,0.254 -0.276,0.17 -0.477,0.445 -0.604,0.826 l -1.303,4.193 -7.052,0 -1.272,-4.193 c -0.105,-0.381 -0.307,-0.656 -0.603,-0.826 -0.297,-0.17 -0.594,-0.254 -0.889,-0.254 -0.467,0 -0.844,0.133 -1.129,0.397 -0.285,0.265 -0.43,0.599 -0.43,1.001 0,0.063 0.006,0.137 0.018,0.223 0.01,0.084 0.025,0.18 0.047,0.285 l 6.037,19.19 c 0.127,0.402 0.359,0.705 0.699,0.906 0.338,0.201 0.688,0.303 1.047,0.303 0.383,0 0.736,-0.096 1.064,-0.287 0.329,-0.19 0.557,-0.498 0.684,-0.922 l 6.037,-19.19 c 0.022,-0.105 0.037,-0.201 0.047,-0.285 0.012,-0.086 0.016,-0.148 0.016,-0.191"
             style="fill:#1e1e32;fill-opacity:1;fill-rule:nonzero;stroke:none"
             id="path114"
             inkscape:connector-curvature="0" /></g><g
           id="g116"
           transform="translate(529.8394,67.3203)"><path
             d="m 0,0 c 0,-0.889 -0.164,-1.699 -0.492,-2.43 -0.328,-0.73 -0.774,-1.349 -1.335,-1.859 -0.563,-0.508 -1.231,-0.9 -2.002,-1.176 -0.774,-0.273 -1.606,-0.412 -2.494,-0.412 l -0.319,0 c -0.826,0 -1.615,0.139 -2.367,0.418 -0.752,0.277 -1.414,0.684 -1.986,1.219 -0.57,0.535 -1.022,1.185 -1.35,1.951 -0.328,0.764 -0.492,1.633 -0.492,2.607 0,0.508 0.158,0.891 0.477,1.145 0.318,0.254 0.668,0.381 1.048,0.381 0.381,0 0.731,-0.127 1.049,-0.381 0.317,-0.254 0.477,-0.637 0.477,-1.145 0,-1.017 0.295,-1.8 0.889,-2.351 0.593,-0.551 1.345,-0.826 2.255,-0.826 l 0.319,0 c 0.953,0 1.736,0.244 2.351,0.73 0.614,0.486 0.92,1.205 0.92,2.156 0,0.741 -0.238,1.375 -0.715,1.905 -0.476,0.527 -1.068,1.007 -1.779,1.441 -0.709,0.434 -1.476,0.857 -2.303,1.27 -0.826,0.412 -1.593,0.873 -2.302,1.38 -0.711,0.506 -1.303,1.1 -1.78,1.776 -0.476,0.676 -0.715,1.49 -0.715,2.443 l 0,0.571 c 0,0.867 0.18,1.644 0.54,2.33 0.359,0.687 0.826,1.275 1.398,1.761 0.572,0.487 1.217,0.862 1.937,1.125 0.721,0.266 1.442,0.399 2.161,0.399 l 0.287,0 c 0.761,0 1.504,-0.102 2.222,-0.303 0.721,-0.201 1.362,-0.504 1.924,-0.906 0.561,-0.403 1.011,-0.91 1.351,-1.524 0.338,-0.615 0.508,-1.324 0.508,-2.129 l 0,-0.191 c 0,-0.424 -0.137,-0.768 -0.412,-1.033 -0.276,-0.264 -0.625,-0.397 -1.05,-0.397 -0.446,0 -0.795,0.127 -1.049,0.381 -0.254,0.254 -0.434,0.594 -0.539,1.018 -0.192,0.867 -0.52,1.429 -0.986,1.683 -0.465,0.254 -1.124,0.381 -1.969,0.381 l -0.287,0 c -0.338,0 -0.688,-0.053 -1.047,-0.158 -0.362,-0.107 -0.684,-0.266 -0.971,-0.477 -0.285,-0.212 -0.518,-0.472 -0.697,-0.779 -0.182,-0.306 -0.272,-0.65 -0.272,-1.031 l 0,-0.637 c 0,-0.508 0.239,-0.963 0.715,-1.365 0.477,-0.402 1.07,-0.807 1.779,-1.207 C -6.394,7.35 -5.624,6.928 -4.798,6.482 -3.972,6.037 -3.206,5.518 -2.495,4.926 -1.786,4.332 -1.191,3.639 -0.715,2.844 -0.238,2.051 0,1.102 0,0"
             style="fill:#1e1e32;fill-opacity:1;fill-rule:nonzero;stroke:none"
             id="path118"
             inkscape:connector-curvature="0" /></g><g
           id="g120"
           transform="translate(536.48,61.8086)"><path
             d="m 0,0 c -0.318,-0.244 -0.668,-0.365 -1.049,-0.365 -0.381,0 -0.73,0.121 -1.049,0.365 -0.318,0.244 -0.476,0.619 -0.476,1.127 l 0,19.287 c 0,0.508 0.158,0.889 0.476,1.143 0.319,0.254 0.668,0.382 1.049,0.382 0.381,0 0.731,-0.128 1.049,-0.382 0.316,-0.254 0.477,-0.635 0.477,-1.143 l 0,-19.287 C 0.477,0.619 0.316,0.244 0,0"
             style="fill:#1e1e32;fill-opacity:1;fill-rule:nonzero;stroke:none"
             id="path122"
             inkscape:connector-curvature="0" /></g><g
           id="g124"
           transform="translate(553.6362,63.0957)"><path
             d="m 0,0 c 0,-0.361 -0.127,-0.699 -0.381,-1.018 -0.254,-0.316 -0.635,-0.476 -1.144,-0.476 l -8.53,0 c -0.429,0 -0.793,0.154 -1.091,0.461 -0.301,0.306 -0.45,0.662 -0.45,1.064 l 0,19.096 c 0,0.508 0.16,0.889 0.481,1.143 0.32,0.253 0.674,0.382 1.06,0.382 0.385,0 0.733,-0.129 1.043,-0.382 0.311,-0.254 0.465,-0.635 0.465,-1.143 l 0,-17.602 7.022,0 c 0.509,0 0.89,-0.16 1.144,-0.476 C -0.127,0.73 0,0.381 0,0"
             style="fill:#1e1e32;fill-opacity:1;fill-rule:nonzero;stroke:none"
             id="path126"
             inkscape:connector-curvature="0" /></g><g
           id="g128"
           transform="translate(566.3452,82.2227)"><path
             d="m 0,0 c 0,-0.213 -0.043,-0.414 -0.127,-0.604 l -4.799,-11.533 0,-7.15 c 0,-0.508 -0.158,-0.883 -0.476,-1.127 -0.317,-0.244 -0.666,-0.365 -1.047,-0.365 -0.383,0 -0.733,0.121 -1.049,0.365 -0.318,0.244 -0.477,0.619 -0.477,1.127 l 0,7.15 -4.798,11.533 c -0.084,0.147 -0.127,0.35 -0.127,0.604 0,0.424 0.144,0.783 0.429,1.08 0.285,0.297 0.672,0.445 1.16,0.445 0.276,0 0.534,-0.076 0.778,-0.222 0.244,-0.149 0.439,-0.393 0.588,-0.731 l 3.496,-8.42 3.494,8.42 c 0.148,0.338 0.344,0.582 0.588,0.731 0.242,0.146 0.502,0.222 0.777,0.222 0.488,0 0.875,-0.148 1.16,-0.445 C -0.143,0.783 0,0.424 0,0"
             style="fill:#1e1e32;fill-opacity:1;fill-rule:nonzero;stroke:none"
             id="path130"
             inkscape:connector-curvature="0" /></g><g
           id="g132"
           transform="translate(364.8247,108.3691)"><path
             d="m 0,0 c -0.922,-2.104 -2.16,-3.93 -3.715,-5.486 -1.556,-1.557 -3.385,-2.78 -5.486,-3.672 -2.104,-0.895 -4.363,-1.34 -6.783,-1.34 l -0.778,0 c -2.361,0 -4.593,0.445 -6.695,1.34 -2.104,0.892 -3.932,2.115 -5.486,3.672 -1.557,1.556 -2.795,3.382 -3.715,5.486 -0.924,2.103 -1.383,4.333 -1.383,6.697 l 0,38.445 c 0,1.672 0.518,2.924 1.555,3.76 1.037,0.834 2.189,1.252 3.457,1.252 1.265,0 2.418,-0.418 3.455,-1.25 1.037,-0.834 1.554,-2.086 1.554,-3.752 l 0,-38.381 c 0,-2.014 0.706,-3.738 2.118,-5.178 1.41,-1.435 3.125,-2.155 5.14,-2.155 l 0.778,0 c 2.015,0 3.744,0.72 5.183,2.155 1.44,1.44 2.162,3.164 2.162,5.178 l 0,38.381 c 0,1.666 0.518,2.918 1.553,3.752 1.037,0.832 2.19,1.25 3.457,1.25 1.266,0 2.42,-0.418 3.455,-1.252 1.039,-0.836 1.557,-2.088 1.557,-3.76 l 0,-38.445 C 1.383,4.333 0.922,2.103 0,0"
             style="fill:#f55564;fill-opacity:1;fill-rule:nonzero;stroke:none"
             id="path134"
             inkscape:connector-curvature="0" /></g><g
           id="g136"
           transform="translate(403.272,140.7241)"><path
             d="m 0,0 c 0,2.016 -0.662,3.746 -1.988,5.186 -1.325,1.437 -2.994,2.16 -5.01,2.16 l -8.813,0 0,-15.467 9.073,0 c 1.957,0 3.568,0.721 4.838,2.162 1.265,1.438 1.9,3.166 1.9,5.184 L 0,0 Z m 7.215,-10.453 c -1.873,-2.822 -4.363,-4.897 -7.473,-6.221 l 9.071,-19.093 c 0.402,-0.865 0.605,-1.615 0.605,-2.248 0,-1.44 -0.549,-2.606 -1.643,-3.498 -1.093,-0.895 -2.302,-1.34 -3.627,-1.34 -0.865,0 -1.685,0.217 -2.462,0.648 -0.78,0.434 -1.399,1.166 -1.858,2.204 l -10.455,21.944 -5.184,0 0,-19.87 c 0,-1.672 -0.519,-2.91 -1.556,-3.715 -1.037,-0.807 -2.19,-1.211 -3.455,-1.211 -1.268,0 -2.418,0.404 -3.455,1.211 -1.037,0.805 -1.557,2.043 -1.557,3.715 l 0,50.197 c 0,1.324 0.504,2.492 1.512,3.5 1.008,1.007 2.174,1.511 3.5,1.511 l 13.566,0 c 2.418,0 4.678,-0.445 6.781,-1.338 C 1.627,15.049 3.457,13.826 5.01,12.27 6.566,10.717 7.791,8.885 8.684,6.783 9.576,4.682 10.023,2.422 10.023,0 l 0,-0.775 c 0,-3.631 -0.937,-6.856 -2.808,-9.678"
             style="fill:#f55564;fill-opacity:1;fill-rule:nonzero;stroke:none"
             id="path138"
             inkscape:connector-curvature="0" /></g><g
           id="g140"
           transform="translate(431.0923,99.082)"><path
             d="m 0,0 c -1.037,-0.807 -2.189,-1.211 -3.457,-1.211 -1.266,0 -2.418,0.404 -3.455,1.211 -1.035,0.805 -1.555,2.043 -1.555,3.715 l 0,50.714 c 0,1.672 0.52,2.924 1.555,3.76 1.037,0.834 2.189,1.252 3.455,1.252 1.268,0 2.42,-0.418 3.457,-1.252 1.037,-0.836 1.557,-2.088 1.557,-3.76 l 0,-50.714 C 1.557,2.043 1.037,0.805 0,0"
             style="fill:#f55564;fill-opacity:1;fill-rule:nonzero;stroke:none"
             id="path142"
             inkscape:connector-curvature="0" /></g><g
           id="g144"
           transform="translate(468.8481,141.603)"><path
             d="m 0,0 c 0,2.014 -0.707,3.678 -2.115,5.002 -1.412,1.322 -3.127,1.982 -5.143,1.982 l -0.777,0 c -2.016,0 -3.729,-0.66 -5.141,-1.982 C -14.588,3.678 -15.291,2.014 -15.291,0 l 0,-26.725 c 0,-2.011 0.703,-3.695 2.115,-5.045 1.412,-1.351 3.125,-2.026 5.141,-2.026 l 0.777,0 c 2.016,0 3.731,0.662 5.143,1.982 1.408,1.322 2.115,2.992 2.115,5.002 L 0,0 Z m 8.684,-33.537 c -0.895,-2.074 -2.118,-3.873 -3.672,-5.398 -1.555,-1.529 -3.383,-2.711 -5.487,-3.545 -2.103,-0.834 -4.363,-1.252 -6.783,-1.252 l -0.777,0 c -2.363,0 -4.594,0.432 -6.695,1.297 -2.104,0.865 -3.932,2.043 -5.487,3.541 -1.554,1.498 -2.795,3.269 -3.717,5.314 -0.92,2.045 -1.38,4.277 -1.38,6.695 l 0,26.871 c 0,2.418 0.46,4.651 1.38,6.696 0.922,2.045 2.163,3.83 3.717,5.359 1.555,1.525 3.383,2.721 5.487,3.582 2.101,0.865 4.332,1.297 6.695,1.297 l 0.777,0 c 2.42,0 4.68,-0.432 6.783,-1.297 2.104,-0.861 3.932,-2.057 5.487,-3.582 1.554,-1.529 2.777,-3.314 3.672,-5.359 0.892,-2.045 1.339,-4.278 1.339,-6.696 l 0,-26.785 c 0,-2.418 -0.447,-4.664 -1.339,-6.738"
             style="fill:#f55564;fill-opacity:1;fill-rule:nonzero;stroke:none"
             id="path146"
             inkscape:connector-curvature="0" /></g><g
           id="g148"
           transform="translate(523.1938,108.3691)"><path
             d="m 0,0 c -0.92,-2.104 -2.16,-3.93 -3.715,-5.486 -1.556,-1.557 -3.385,-2.78 -5.486,-3.672 -2.102,-0.895 -4.363,-1.34 -6.783,-1.34 l -0.778,0 c -2.361,0 -4.593,0.445 -6.695,1.34 -2.104,0.892 -3.932,2.115 -5.486,3.672 -1.555,1.556 -2.795,3.382 -3.715,5.486 -0.922,2.103 -1.383,4.333 -1.383,6.697 l 0,38.445 c 0,1.672 0.52,2.924 1.555,3.76 1.037,0.834 2.189,1.252 3.457,1.252 1.265,0 2.418,-0.418 3.455,-1.25 1.037,-0.834 1.556,-2.086 1.556,-3.752 l 0,-38.381 c 0,-2.014 0.704,-3.738 2.116,-5.178 1.412,-1.435 3.125,-2.155 5.14,-2.155 l 0.778,0 c 2.015,0 3.744,0.72 5.185,2.155 1.438,1.44 2.16,3.164 2.16,5.178 l 0,38.381 c 0,1.666 0.518,2.918 1.555,3.752 1.037,0.832 2.188,1.25 3.457,1.25 1.266,0 2.418,-0.418 3.453,-1.252 1.039,-0.836 1.557,-2.088 1.557,-3.76 l 0,-38.445 C 1.383,4.333 0.922,2.103 0,0"
             style="fill:#f55564;fill-opacity:1;fill-rule:nonzero;stroke:none"
             id="path150"
             inkscape:connector-curvature="0" /></g><g
           id="g152"
           transform="translate(569.0737,114.2866)"><path
             d="m 0,0 c 0,-2.477 -0.447,-4.723 -1.34,-6.738 -0.892,-2.017 -2.131,-3.744 -3.715,-5.183 -1.584,-1.442 -3.443,-2.551 -5.574,-3.327 -2.131,-0.777 -4.463,-1.168 -6.998,-1.168 l -0.777,0 c -2.305,0 -4.508,0.395 -6.61,1.178 -2.103,0.783 -3.961,1.916 -5.572,3.399 -1.615,1.48 -2.881,3.293 -3.801,5.431 -0.924,2.14 -1.383,4.564 -1.383,7.273 0,1.668 0.518,2.922 1.555,3.758 1.037,0.834 2.188,1.254 3.455,1.254 1.266,0 2.42,-0.42 3.457,-1.254 1.037,-0.836 1.555,-2.09 1.555,-3.758 0,-2.418 0.678,-4.25 2.031,-5.486 1.352,-1.24 3.123,-1.859 5.313,-1.859 l 0.777,0 c 2.189,0 4.004,0.547 5.445,1.64 1.438,1.092 2.159,2.731 2.159,4.916 0,1.783 -0.62,3.348 -1.858,4.699 -1.238,1.352 -2.795,2.604 -4.666,3.754 -1.873,1.149 -3.889,2.299 -6.047,3.45 -2.16,1.152 -4.177,2.459 -6.049,3.923 -1.873,1.467 -3.425,3.135 -4.666,5.002 -1.238,1.871 -1.857,4.127 -1.857,6.774 l 0,1.812 c 0,2.356 0.521,4.438 1.559,6.25 1.041,1.813 2.382,3.35 4.029,4.615 1.644,1.266 3.451,2.229 5.412,2.889 1.965,0.662 3.898,0.992 5.803,0.992 l 0.781,0 c 2.252,0 4.387,-0.33 6.408,-0.992 2.022,-0.662 3.811,-1.598 5.371,-2.808 1.559,-1.211 2.801,-2.666 3.725,-4.364 0.924,-1.699 1.387,-3.586 1.387,-5.66 0,-1.67 -0.539,-2.894 -1.616,-3.672 -1.072,-0.775 -2.25,-1.164 -3.527,-1.164 -1.221,0 -2.34,0.371 -3.355,1.121 -1.018,0.748 -1.526,1.903 -1.526,3.457 0,1.153 -0.633,2.131 -1.9,2.938 -1.268,0.806 -2.938,1.209 -5.012,1.209 l -0.777,0 c -1.901,0 -3.498,-0.475 -4.795,-1.424 -1.297,-0.953 -1.944,-2.262 -1.944,-3.932 l 0,-1.295 c 0,-1.154 0.618,-2.22 1.858,-3.197 1.238,-0.982 2.793,-2.004 4.664,-3.068 1.873,-1.067 3.889,-2.217 6.049,-3.457 2.16,-1.239 4.176,-2.694 6.047,-4.362 1.873,-1.671 3.427,-3.599 4.668,-5.789 C -0.621,5.588 0,2.996 0,0"
             style="fill:#f55564;fill-opacity:1;fill-rule:nonzero;stroke:none"
             id="path154"
             inkscape:connector-curvature="0" /></g><g
           id="g156"
           transform="translate(128.2954,105.5996)"><path
             d="m 0,0 -14.867,-14.67 c -1.864,-1.84 -3.608,-2.832 -5.234,-2.982 -1.626,-0.145 -2.867,0.254 -3.716,1.193 -0.852,0.943 -1.159,2.26 -0.926,3.949 0.236,1.686 1.282,3.449 3.145,5.289 L -6.729,7.453 c 1.861,1.836 3.589,2.812 5.183,2.927 C 0.05,10.498 1.272,10.083 2.122,9.14 2.972,8.201 3.3,6.9 3.097,5.242 2.893,3.583 1.86,1.836 0,0"
             style="fill:#1e1e32;fill-opacity:1;fill-rule:nonzero;stroke:none"
             id="path158"
             inkscape:connector-curvature="0" /></g><g
           id="g160"
           transform="translate(102.4644,73.4043)"><path
             d="m 0,0 c 3.99,3.805 4.142,10.148 0.337,14.139 -3.804,3.99 -10.148,4.142 -14.138,0.338 C -17.792,10.672 -17.943,4.33 -14.139,0.338 -10.334,-3.652 -3.991,-3.803 0,0 m 6.9,-7.236 c -7.982,-7.612 -20.667,-7.307 -28.276,0.674 -7.609,7.982 -7.308,20.666 0.675,28.277 7.981,7.609 20.667,7.306 28.275,-0.676 7.61,-7.98 7.307,-20.666 -0.674,-28.275"
             style="fill:#1e1e32;fill-opacity:1;fill-rule:nonzero;stroke:none"
             id="path162"
             inkscape:connector-curvature="0" /></g><g
           id="g164"
           transform="translate(111.3081,136.1519)"><path
             d="m 0,0 12.803,-3.76 c 1.603,-0.469 2.658,-1.32 3.168,-2.551 0.508,-1.228 0.584,-2.455 0.227,-3.669 -0.358,-1.215 -1.083,-2.204 -2.176,-2.963 -1.094,-0.758 -2.441,-0.905 -4.044,-0.432 l -12.802,3.76 c -1.603,0.47 -2.644,1.318 -3.126,2.537 -0.483,1.223 -0.544,2.441 -0.187,3.658 0.358,1.215 1.069,2.209 2.135,2.977 C -2.937,0.322 -1.602,0.473 0,0"
             style="fill:#1e1e32;fill-opacity:1;fill-rule:nonzero;stroke:none"
             id="path166"
             inkscape:connector-curvature="0" /></g><g
           id="g168"
           transform="translate(129.7241,125.521)"><path
             d="m 0,0 c 1.555,5.289 7.122,8.33 12.414,6.777 5.289,-1.554 8.33,-7.123 6.775,-12.412 -1.552,-5.291 -7.122,-8.332 -12.412,-6.777 C 1.486,-10.859 -1.553,-5.291 0,0 m 3.959,-22.007 c 10.583,-3.108 21.718,2.974 24.825,13.554 C 31.892,2.127 25.813,13.264 15.231,16.373 4.651,19.479 -6.487,13.398 -9.595,2.818 -12.701,-7.762 -6.621,-18.9 3.959,-22.007"
             style="fill:#1e1e32;fill-opacity:1;fill-rule:nonzero;stroke:none"
             id="path170"
             inkscape:connector-curvature="0" /></g><g
           id="g172"
           transform="translate(83.0122,108.3281)"><path
             d="m 0,0 -3.146,12.966 c -0.392,1.625 -0.183,2.963 0.625,4.02 0.813,1.055 1.835,1.734 3.065,2.031 1.232,0.301 2.451,0.164 3.655,-0.4 1.203,-0.571 2.003,-1.664 2.398,-3.287 L 9.74,2.363 C 10.134,0.74 9.922,-0.586 9.105,-1.613 8.287,-2.643 7.264,-3.305 6.03,-3.604 4.801,-3.902 3.583,-3.783 2.386,-3.244 1.191,-2.703 0.393,-1.621 0,0"
             style="fill:#f55564;fill-opacity:1;fill-rule:nonzero;stroke:none"
             id="path174"
             inkscape:connector-curvature="0" /></g><g
           id="g176"
           transform="translate(70.937,136.9526)"><path
             d="m 0,0 c 1.299,-5.355 6.717,-8.658 12.075,-7.361 5.359,1.3 8.659,6.718 7.362,12.076 -1.3,5.359 -6.718,8.662 -12.076,7.361 C 2.002,10.777 -1.3,5.359 0,0 m -9.719,-2.355 c -2.599,10.718 4.005,21.552 14.722,24.15 10.717,2.6 21.552,-4.004 24.152,-14.723 2.599,-10.715 -4.007,-21.551 -14.723,-24.15 -10.717,-2.6 -21.552,4.006 -24.151,14.723"
             style="fill:#f55564;fill-opacity:1;fill-rule:nonzero;stroke:none"
             id="path178"
             inkscape:connector-curvature="0" /></g></g></g></g></svg>