<svg id="svg2" xmlns="http://www.w3.org/2000/svg" xmlns:xlink="http://www.w3.org/1999/xlink" viewBox="0 0 635.53 123.33"><defs><clipPath id="clip-path" transform="translate(-75.82 -75.82)"><rect width="785.59" height="274.96" style="fill:none"/></clipPath></defs><title>lk_logo_container</title><g id="g10"><g id="g12"><g style="clip-path:url(#clip-path)"><g id="g14"><g id="g20"><path id="path22" d="M264.34,145.92a6.58,6.58,0,0,1-1.56,4.21,5.67,5.67,0,0,1-4.7,1.95H230.53a6.46,6.46,0,0,1-6.27-6.27V83.07a5.67,5.67,0,0,1,1.94-4.7,6.74,6.74,0,0,1,8.64,0,5.67,5.67,0,0,1,1.95,4.7v56.59h21.27a5.68,5.68,0,0,1,4.7,1.95,6.72,6.72,0,0,1,1.57,4.32" transform="translate(-75.82 -75.82)"/></g><g id="g24"><path id="path26" d="M285,151.1a6.92,6.92,0,0,1-8.64,0,5.51,5.51,0,0,1-1.94-4.64V83.07a5.68,5.68,0,0,1,1.94-4.7,6.75,6.75,0,0,1,8.64,0,5.68,5.68,0,0,1,1.94,4.7v63.39A5.52,5.52,0,0,1,285,151.1" transform="translate(-75.82 -75.82)"/></g><g id="g28"><path id="path30" d="M344,150.78a6.09,6.09,0,0,1-4.37,1.84h-1.19a5.67,5.67,0,0,1-4.43-1.56,14.23,14.23,0,0,1-2.38-3.73l-17.39-40.39v39.53a5.51,5.51,0,0,1-1.95,4.64,6.92,6.92,0,0,1-8.64,0,5.51,5.51,0,0,1-1.94-4.64V83.07A6.46,6.46,0,0,1,308,76.8h1.4a5.56,5.56,0,0,1,4.43,1.62,15.29,15.29,0,0,1,2.37,3.78l17.17,38.88V83a5.52,5.52,0,0,1,1.94-4.64,6.93,6.93,0,0,1,8.64,0A5.52,5.52,0,0,1,345.88,83v63.5a5.83,5.83,0,0,1-1.89,4.32" transform="translate(-75.82 -75.82)"/></g><g id="g32"><path id="path34" d="M404.19,146.68a5.28,5.28,0,0,1-2,4.32,6.93,6.93,0,0,1-4.48,1.62,6.6,6.6,0,0,1-3.08-.76,5.8,5.8,0,0,1-2.43-2.7l-13.82-28.51-5.94,8.75v17.07a5.51,5.51,0,0,1-1.95,4.64,6.92,6.92,0,0,1-8.64,0,5.51,5.51,0,0,1-1.94-4.64V83.07a5.67,5.67,0,0,1,1.94-4.7,6.74,6.74,0,0,1,8.64,0,5.67,5.67,0,0,1,1.95,4.7v24.08L391.12,79.5a6.19,6.19,0,0,1,2.38-2.11,6.47,6.47,0,0,1,2.7-.59,6.55,6.55,0,0,1,4.48,1.78,5.63,5.63,0,0,1,2,4.37,6.56,6.56,0,0,1-1.19,3.56l-15,22.14,17.06,35.1a6.88,6.88,0,0,1,.65,2.92" transform="translate(-75.82 -75.82)"/></g><g id="g36"><path id="path38" d="M243.15,172.14a2.07,2.07,0,0,1,0,.52l-5.8,23.87a1.89,1.89,0,0,1-.83,1.23,2.62,2.62,0,0,1-2.78,0,1.89,1.89,0,0,1-.83-1.23l-5.8-23.87a2.09,2.09,0,0,1,0-.52,1.77,1.77,0,0,1,.56-1.33,2,2,0,0,1,2.5-.2,1.81,1.81,0,0,1,.71,1.13L235.09,190l4.29-18.27a1.8,1.8,0,0,1,.72-1.13,1.94,1.94,0,0,1,1.07-.34,2,2,0,0,1,1.43.54,1.77,1.77,0,0,1,.56,1.33" transform="translate(-75.82 -75.82)"/></g><g id="g40"><path id="path42" d="M251.09,197.7a2.11,2.11,0,0,1-2.62,0,1.66,1.66,0,0,1-.6-1.41V172.18a1.72,1.72,0,0,1,.6-1.43,2,2,0,0,1,2.62,0,1.72,1.72,0,0,1,.6,1.43v24.11a1.66,1.66,0,0,1-.6,1.41" transform="translate(-75.82 -75.82)"/></g><g id="g44"><path id="path46" d="M272.74,190.81a7.34,7.34,0,0,1-.62,3,7,7,0,0,1-1.67,2.32,7.38,7.38,0,0,1-2.5,1.47,9.31,9.31,0,0,1-3.12.52h-0.4a8.44,8.44,0,0,1-3-.52,7.28,7.28,0,0,1-2.48-1.52,7.16,7.16,0,0,1-1.69-2.44,8.17,8.17,0,0,1-.61-3.26,1.72,1.72,0,0,1,.6-1.43,2,2,0,0,1,2.62,0,1.72,1.72,0,0,1,.6,1.43,3.81,3.81,0,0,0,1.11,2.94,4,4,0,0,0,2.82,1h0.4a4.59,4.59,0,0,0,2.94-.91,3.22,3.22,0,0,0,1.15-2.69,3.43,3.43,0,0,0-.89-2.38,10,10,0,0,0-2.22-1.8q-1.33-.81-2.88-1.59a21.33,21.33,0,0,1-2.88-1.73,9.33,9.33,0,0,1-2.22-2.22,5.17,5.17,0,0,1-.89-3.05v-0.71a6.14,6.14,0,0,1,.68-2.91,7.29,7.29,0,0,1,1.75-2.2,7.85,7.85,0,0,1,2.42-1.41,7.75,7.75,0,0,1,2.7-.5h0.36a10.28,10.28,0,0,1,2.78.38,7.59,7.59,0,0,1,2.4,1.13,5.73,5.73,0,0,1,1.69,1.91,5.43,5.43,0,0,1,.64,2.66v0.24a1.72,1.72,0,0,1-.52,1.29,1.82,1.82,0,0,1-1.31.5,1.77,1.77,0,0,1-1.31-.48,2.67,2.67,0,0,1-.68-1.27,3,3,0,0,0-1.23-2.1,5.21,5.21,0,0,0-2.46-.48h-0.36a4.68,4.68,0,0,0-1.31.2,3.89,3.89,0,0,0-1.21.6,3.26,3.26,0,0,0-.87,1,2.49,2.49,0,0,0-.34,1.29v0.8a2.2,2.2,0,0,0,.89,1.71,14.5,14.5,0,0,0,2.22,1.51c0.89,0.51,1.85,1,2.88,1.59a17.35,17.35,0,0,1,2.88,1.94,10.23,10.23,0,0,1,2.22,2.6,6.77,6.77,0,0,1,.89,3.56" transform="translate(-75.82 -75.82)"/></g><g id="g48"><path id="path50" d="M292.73,193.45a8.12,8.12,0,0,1-1.65,2.46,7.49,7.49,0,0,1-2.44,1.65,7.73,7.73,0,0,1-3,.6h-0.4a7.7,7.7,0,0,1-5.46-2.24,7.94,7.94,0,0,1-1.67-2.46,7.39,7.39,0,0,1-.62-3V172.18a1.72,1.72,0,0,1,.6-1.43,2,2,0,0,1,2.62,0,1.71,1.71,0,0,1,.6,1.43v18.27a3.68,3.68,0,0,0,.32,1.51,4.08,4.08,0,0,0,2.1,2.11,3.8,3.8,0,0,0,1.55.32h0.36a3.71,3.71,0,0,0,1.51-.32,4.08,4.08,0,0,0,2.11-2.11,3.7,3.7,0,0,0,.32-1.51V172.18a1.72,1.72,0,0,1,.6-1.43,2,2,0,0,1,2.62,0,1.72,1.72,0,0,1,.6,1.43v18.27a7.41,7.41,0,0,1-.62,3" transform="translate(-75.82 -75.82)"/></g><g id="g52"><path id="path54" d="M307.17,177.26L304,187.79h6.43Zm9.81,19.1a1.68,1.68,0,0,1-.54,1.29,2.12,2.12,0,0,1-2.48.18,1.83,1.83,0,0,1-.76-1l-1.63-5.24h-8.82l-1.59,5.24a1.63,1.63,0,0,1-.75,1,2.22,2.22,0,0,1-1.11.32,2,2,0,0,1-1.41-.5,1.63,1.63,0,0,1-.54-1.25,2.49,2.49,0,0,1,0-.28c0-.1,0-0.23.06-0.36l7.54-24a1.94,1.94,0,0,1,.87-1.13,2.54,2.54,0,0,1,1.31-.38,2.6,2.6,0,0,1,1.33.36,1.89,1.89,0,0,1,.86,1.15l7.55,24c0,0.13,0,.25.06,0.36a2,2,0,0,1,0,.24" transform="translate(-75.82 -75.82)"/></g><g id="g56"><path id="path58" d="M335.53,196.09a2,2,0,0,1-.48,1.27,1.73,1.73,0,0,1-1.43.59H323A1.94,1.94,0,0,1,321,196V172.18a1.71,1.71,0,0,1,.6-1.43,2.09,2.09,0,0,1,1.32-.48,2,2,0,0,1,1.31.48,1.74,1.74,0,0,1,.58,1.43v22h8.78a1.73,1.73,0,0,1,1.43.6,2.06,2.06,0,0,1,.48,1.31" transform="translate(-75.82 -75.82)"/></g><g id="g60"><path id="path62" d="M343.11,197.7a2.11,2.11,0,0,1-2.62,0,1.67,1.67,0,0,1-.6-1.41V172.18a1.72,1.72,0,0,1,.6-1.43,2,2,0,0,1,2.62,0,1.72,1.72,0,0,1,.6,1.43v24.11a1.66,1.66,0,0,1-.6,1.41" transform="translate(-75.82 -75.82)"/></g><g id="g64"><path id="path66" d="M363.88,196a2,2,0,0,1-.48,1.31,1.72,1.72,0,0,1-1.43.6H350.5a1.89,1.89,0,0,1-1.55-.68,2.31,2.31,0,0,1-.56-1.51,2.21,2.21,0,0,1,.24-1l10.09-20.49h-8a1.71,1.71,0,0,1-1.43-.6,2,2,0,0,1-.48-1.31,2,2,0,0,1,.48-1.27,1.72,1.72,0,0,1,1.43-.6H361.5a2.17,2.17,0,0,1,1.63.58,1.91,1.91,0,0,1,.56,1.37,2.35,2.35,0,0,1-.1.66,4.32,4.32,0,0,1-.26.66l-10,20.41H362a1.72,1.72,0,0,1,1.43.6,2,2,0,0,1,.48,1.27" transform="translate(-75.82 -75.82)"/></g><g id="g68"><path id="path70" d="M384.14,196.09a2,2,0,0,1-.48,1.27,1.73,1.73,0,0,1-1.43.59H370.16a2,2,0,0,1-1.91-1.91V172.42a2,2,0,0,1,1.91-1.91h12.07a1.72,1.72,0,0,1,1.43.6,2.05,2.05,0,0,1,.48,1.31,2,2,0,0,1-.48,1.27,1.73,1.73,0,0,1-1.43.6H372.06v7.66H379a1.76,1.76,0,0,1,1.43.58,2,2,0,0,1,.48,1.29,2,2,0,0,1-.48,1.31,1.72,1.72,0,0,1-1.43.6h-6.91v8.46h10.17a1.73,1.73,0,0,1,1.43.59,2.06,2.06,0,0,1,.48,1.31" transform="translate(-75.82 -75.82)"/></g><g id="g72"><path id="path74" d="M414.46,193.49a7.87,7.87,0,0,1-1.65,2.44,7.6,7.6,0,0,1-2.44,1.63,7.72,7.72,0,0,1-3,.6h-0.4a8,8,0,0,1-3-.58,7.44,7.44,0,0,1-2.46-1.59,7.71,7.71,0,0,1-1.65-2.41,7.36,7.36,0,0,1-.61-3V177.86a7.24,7.24,0,0,1,.61-3,7.87,7.87,0,0,1,1.67-2.4,7.6,7.6,0,0,1,2.46-1.61,7.85,7.85,0,0,1,3-.58h0.4a8.4,8.4,0,0,1,5.28,1.83,6.8,6.8,0,0,1,1.67,2,6.1,6.1,0,0,1,.75,2.44v0.2a1.59,1.59,0,0,1-.58,1.35,2.09,2.09,0,0,1-1.29.44,2,2,0,0,1-1.19-.4,1.79,1.79,0,0,1-.67-1.31,2.62,2.62,0,0,0-1.33-2,5.08,5.08,0,0,0-2.64-.7h-0.4a3.92,3.92,0,0,0-2.8,1.07,3.6,3.6,0,0,0-1.13,2.73v12.69a4,4,0,0,0,.3,1.54,3.4,3.4,0,0,0,.83,1.21,4.19,4.19,0,0,0,1.25.79,4,4,0,0,0,1.55.3h0.4a3.66,3.66,0,0,0,1.51-.32,4.08,4.08,0,0,0,1.25-.85,4,4,0,0,0,.85-1.26,3.76,3.76,0,0,0,.32-1.52v-4.07H408a1.72,1.72,0,0,1-1.43-.6,2.05,2.05,0,0,1-.48-1.31,2,2,0,0,1,.48-1.29,1.75,1.75,0,0,1,1.43-.58h5.08a1.9,1.9,0,0,1,1.37.56,1.81,1.81,0,0,1,.58,1.35v6a7.52,7.52,0,0,1-.62,3" transform="translate(-75.82 -75.82)"/></g><g id="g76"><path id="path78" d="M432.94,178.26a4.2,4.2,0,0,0-1.09-2.84,3.49,3.49,0,0,0-1.19-.84,3.84,3.84,0,0,0-1.53-.3h-4.69v8.26h4.73a3.53,3.53,0,0,0,2.72-1.13,3.94,3.94,0,0,0,1.05-2.8v-0.36Zm2.42,4.92a7.32,7.32,0,0,1-3.65,2.78l4.53,9.49a1.85,1.85,0,0,1,.2.84,1.77,1.77,0,0,1-.56,1.33,2,2,0,0,1-1.47.54,1.87,1.87,0,0,1-.91-0.24,1.76,1.76,0,0,1-.71-0.79l-5.12-10.8h-3.22v10a1.69,1.69,0,0,1-.58,1.41,2,2,0,0,1-1.29.46,2.17,2.17,0,0,1-1.35-.46,1.67,1.67,0,0,1-.6-1.41V172.42a2,2,0,0,1,1.91-1.91H429a7.51,7.51,0,0,1,3,.62,7.72,7.72,0,0,1,4.09,4.09,7.52,7.52,0,0,1,.62,3v0.36a7.76,7.76,0,0,1-1.39,4.56" transform="translate(-75.82 -75.82)"/></g><g id="g80"><path id="path82" d="M449.23,177.26L446,187.79h6.43Zm9.81,19.1a1.68,1.68,0,0,1-.53,1.29,2.12,2.12,0,0,1-2.48.18,1.83,1.83,0,0,1-.76-1l-1.63-5.24h-8.81l-1.59,5.24a1.63,1.63,0,0,1-.75,1,2.22,2.22,0,0,1-1.11.32,2,2,0,0,1-1.41-.5,1.64,1.64,0,0,1-.54-1.25,2.05,2.05,0,0,1,0-.28c0-.1,0-0.23.06-0.36l7.55-24a1.94,1.94,0,0,1,.87-1.13,2.53,2.53,0,0,1,1.31-.38,2.59,2.59,0,0,1,1.33.36,1.89,1.89,0,0,1,.86,1.15l7.55,24c0,0.13,0,.25.06,0.36a1.78,1.78,0,0,1,0,.24" transform="translate(-75.82 -75.82)"/></g><g id="g84"><path id="path86" d="M475.08,178.22a4.09,4.09,0,0,0-1-2.8,3.37,3.37,0,0,0-2.66-1.13H466.9v7.9h4.53a3.34,3.34,0,0,0,2.66-1.15,4.17,4.17,0,0,0,1-2.82m3.81,0a8.23,8.23,0,0,1-.56,3,7.19,7.19,0,0,1-1.57,2.46,7.84,7.84,0,0,1-2.36,1.65,7.11,7.11,0,0,1-3,.62H466.9v10.33a1.66,1.66,0,0,1-.59,1.41,2.11,2.11,0,0,1-2.62,0,1.66,1.66,0,0,1-.6-1.41V172.42a1.86,1.86,0,0,1,.56-1.33,1.81,1.81,0,0,1,1.35-.58h6.43a7.28,7.28,0,0,1,3,.6,7.42,7.42,0,0,1,2.36,1.65,7.52,7.52,0,0,1,1.57,2.44,8,8,0,0,1,.56,3" transform="translate(-75.82 -75.82)"/></g><g id="g88"><path id="path90" d="M498,197.7a2.11,2.11,0,0,1-1.31.46,2.07,2.07,0,0,1-1.33-.46,1.69,1.69,0,0,1-.58-1.41V185.72h-8.26v10.57a1.67,1.67,0,0,1-.59,1.41,2.11,2.11,0,0,1-2.62,0,1.66,1.66,0,0,1-.59-1.41V172.18a1.72,1.72,0,0,1,.59-1.43,2,2,0,0,1,2.62,0,1.72,1.72,0,0,1,.59,1.43v9.77h8.26v-9.77a1.72,1.72,0,0,1,.6-1.43,2,2,0,0,1,2.62,0,1.72,1.72,0,0,1,.6,1.43v24.11a1.66,1.66,0,0,1-.6,1.41" transform="translate(-75.82 -75.82)"/></g><g id="g92"><path id="path94" d="M528.26,178.26a3.79,3.79,0,0,0-.32-1.55,4.07,4.07,0,0,0-2.1-2.1,3.69,3.69,0,0,0-1.51-.32H520v19.9h4.33a3.68,3.68,0,0,0,1.51-.32,4,4,0,0,0,2.1-2.12,3.84,3.84,0,0,0,.32-1.53v-12Zm3.2,15.13a7.55,7.55,0,0,1-1.65,2.44,7.21,7.21,0,0,1-2.44,1.57,8.2,8.2,0,0,1-3,.56h-6.24a2,2,0,0,1-1.9-1.91V172.42a2,2,0,0,1,1.9-1.91h6.24a8.2,8.2,0,0,1,3,.56,7.26,7.26,0,0,1,2.44,1.57,7.56,7.56,0,0,1,1.65,2.44,8,8,0,0,1,.62,3.18v12a8,8,0,0,1-.62,3.18" transform="translate(-75.82 -75.82)"/></g><g id="g96"><path id="path98" d="M545.42,177.26l-3.22,10.52h6.43Zm9.81,19.1a1.68,1.68,0,0,1-.53,1.29,2.12,2.12,0,0,1-2.48.18,1.83,1.83,0,0,1-.76-1l-1.63-5.24H541l-1.59,5.24a1.63,1.63,0,0,1-.75,1,2.22,2.22,0,0,1-1.11.32,2,2,0,0,1-1.41-.5,1.64,1.64,0,0,1-.54-1.25,2.05,2.05,0,0,1,0-.28c0-.1,0-0.23.06-0.36l7.55-24a1.94,1.94,0,0,1,.87-1.13,2.53,2.53,0,0,1,1.31-.38,2.59,2.59,0,0,1,1.33.36,1.89,1.89,0,0,1,.86,1.15l7.55,24c0,0.13,0,.25.06,0.36a1.78,1.78,0,0,1,0,.24" transform="translate(-75.82 -75.82)"/></g><g id="g100"><path id="path102" d="M570.16,172.42a2,2,0,0,1-.48,1.27,1.73,1.73,0,0,1-1.43.6h-3.77v22a1.67,1.67,0,0,1-.6,1.41,2.11,2.11,0,0,1-2.62,0,1.66,1.66,0,0,1-.6-1.41v-22H556.9a1.72,1.72,0,0,1-1.43-.6,2,2,0,0,1-.48-1.27,2.06,2.06,0,0,1,.48-1.31,1.72,1.72,0,0,1,1.43-.6h11.36a1.73,1.73,0,0,1,1.43.6,2.06,2.06,0,0,1,.48,1.31" transform="translate(-75.82 -75.82)"/></g><g id="g104"><path id="path106" d="M580.64,177.26l-3.22,10.52h6.43Zm9.81,19.1a1.68,1.68,0,0,1-.54,1.29,2.12,2.12,0,0,1-2.48.18,1.83,1.83,0,0,1-.76-1l-1.63-5.24h-8.82l-1.59,5.24a1.63,1.63,0,0,1-.75,1,2.22,2.22,0,0,1-1.11.32,2,2,0,0,1-1.41-.5,1.64,1.64,0,0,1-.54-1.25,2.05,2.05,0,0,1,0-.28c0-.1,0-0.23.06-0.36l7.55-24a1.94,1.94,0,0,1,.87-1.13,2.53,2.53,0,0,1,1.31-.38,2.59,2.59,0,0,1,1.33.36,1.89,1.89,0,0,1,.86,1.15l7.55,24c0,0.13,0,.25.06,0.36a1.78,1.78,0,0,1,0,.24" transform="translate(-75.82 -75.82)"/></g><g id="g108"><path id="path110" d="M621.91,196.09a2,2,0,0,1-.48,1.27A1.73,1.73,0,0,1,620,198H607.93A2,2,0,0,1,606,196V172.42a2,2,0,0,1,1.91-1.91H620a1.72,1.72,0,0,1,1.43.6,2.05,2.05,0,0,1,.48,1.31,2,2,0,0,1-.48,1.27,1.72,1.72,0,0,1-1.43.6H609.83v7.66h6.91a1.76,1.76,0,0,1,1.43.58,2,2,0,0,1,.48,1.29,2,2,0,0,1-.48,1.31,1.72,1.72,0,0,1-1.43.6h-6.91v8.46H620a1.73,1.73,0,0,1,1.43.59,2.06,2.06,0,0,1,.48,1.31" transform="translate(-75.82 -75.82)"/></g><g id="g112"><path id="path114" d="M633.74,177.26l-3.22,10.52H637Zm9.81,19.1a1.68,1.68,0,0,1-.53,1.29,2.12,2.12,0,0,1-2.48.18,1.83,1.83,0,0,1-.76-1l-1.63-5.24h-8.81l-1.59,5.24a1.63,1.63,0,0,1-.75,1,2.22,2.22,0,0,1-1.11.32,2,2,0,0,1-1.41-.5,1.64,1.64,0,0,1-.54-1.25,2.05,2.05,0,0,1,0-.28c0-.1,0-0.23.06-0.36l7.55-24a1.94,1.94,0,0,1,.87-1.13,2.53,2.53,0,0,1,1.31-.38,2.59,2.59,0,0,1,1.33.36,1.89,1.89,0,0,1,.86,1.15l7.55,24c0,0.13,0,.25.06,0.36a1.78,1.78,0,0,1,0,.24" transform="translate(-75.82 -75.82)"/></g><g id="g116"><path id="path118" d="M662.3,190.81a7.34,7.34,0,0,1-.62,3,7,7,0,0,1-1.67,2.32,7.42,7.42,0,0,1-2.5,1.47,9.31,9.31,0,0,1-3.12.52H654a8.44,8.44,0,0,1-3-.52,7.28,7.28,0,0,1-2.48-1.52,7.17,7.17,0,0,1-1.69-2.44,8.19,8.19,0,0,1-.61-3.26,1.72,1.72,0,0,1,.6-1.43,2,2,0,0,1,2.62,0,1.73,1.73,0,0,1,.6,1.43,3.81,3.81,0,0,0,1.11,2.94,4,4,0,0,0,2.82,1h0.4a4.59,4.59,0,0,0,2.94-.91,3.23,3.23,0,0,0,1.15-2.69,3.43,3.43,0,0,0-.89-2.38,10,10,0,0,0-2.22-1.8q-1.33-.81-2.88-1.59a21.22,21.22,0,0,1-2.88-1.73,9.29,9.29,0,0,1-2.22-2.22,5.17,5.17,0,0,1-.89-3.05v-0.71a6.17,6.17,0,0,1,.67-2.91,7.29,7.29,0,0,1,1.75-2.2,7.86,7.86,0,0,1,2.42-1.41,7.76,7.76,0,0,1,2.7-.5h0.36a10.27,10.27,0,0,1,2.78.38,7.61,7.61,0,0,1,2.41,1.13,5.73,5.73,0,0,1,1.69,1.91,5.43,5.43,0,0,1,.64,2.66v0.24a1.71,1.71,0,0,1-.52,1.29,1.82,1.82,0,0,1-1.31.5,1.77,1.77,0,0,1-1.31-.48,2.66,2.66,0,0,1-.67-1.27,3,3,0,0,0-1.23-2.1,5.21,5.21,0,0,0-2.46-.48H654a4.66,4.66,0,0,0-1.31.2,3.89,3.89,0,0,0-1.21.6,3.23,3.23,0,0,0-.87,1,2.47,2.47,0,0,0-.34,1.29v0.8a2.2,2.2,0,0,0,.89,1.71,14.57,14.57,0,0,0,2.22,1.51c0.89,0.5,1.85,1,2.88,1.59a17.33,17.33,0,0,1,2.88,1.94,10.23,10.23,0,0,1,2.22,2.6,6.77,6.77,0,0,1,.89,3.56" transform="translate(-75.82 -75.82)"/></g><g id="g120"><path id="path122" d="M670.6,197.7a2.11,2.11,0,0,1-2.62,0,1.66,1.66,0,0,1-.6-1.41V172.18a1.72,1.72,0,0,1,.6-1.43,2,2,0,0,1,2.62,0,1.73,1.73,0,0,1,.6,1.43v24.11a1.67,1.67,0,0,1-.6,1.41" transform="translate(-75.82 -75.82)"/></g><g id="g124"><path id="path126" d="M692,196.09a2,2,0,0,1-.48,1.27,1.73,1.73,0,0,1-1.43.59H679.48a1.94,1.94,0,0,1-1.93-1.91V172.18a1.71,1.71,0,0,1,.6-1.43,2.09,2.09,0,0,1,1.32-.48,2,2,0,0,1,1.3.48,1.74,1.74,0,0,1,.58,1.43v22h8.78a1.73,1.73,0,0,1,1.43.6,2.06,2.06,0,0,1,.48,1.31" transform="translate(-75.82 -75.82)"/></g><g id="g128"><path id="path130" d="M707.93,172.18a1.85,1.85,0,0,1-.16.75l-6,14.42v8.94a1.66,1.66,0,0,1-.59,1.41,2.11,2.11,0,0,1-2.62,0,1.66,1.66,0,0,1-.6-1.41v-8.94l-6-14.42a1.53,1.53,0,0,1-.16-0.75,1.88,1.88,0,0,1,.54-1.35,1.92,1.92,0,0,1,1.45-.56,1.86,1.86,0,0,1,1,.28,1.94,1.94,0,0,1,.74.91L699.87,182l4.37-10.53a1.93,1.93,0,0,1,.74-0.91,1.86,1.86,0,0,1,1-.28,1.92,1.92,0,0,1,1.45.56,1.87,1.87,0,0,1,.54,1.35" transform="translate(-75.82 -75.82)"/></g><g id="g132"><path id="path134" d="M456,139.5a22.19,22.19,0,0,1-4.64,6.86,21.54,21.54,0,0,1-15.34,6.27h-1a21.53,21.53,0,0,1-15.23-6.27,22.11,22.11,0,0,1-4.64-6.86,20.57,20.57,0,0,1-1.73-8.37V83.07a5.67,5.67,0,0,1,1.94-4.7,6.75,6.75,0,0,1,8.64,0A5.66,5.66,0,0,1,426,83.06v48a8.91,8.91,0,0,0,2.65,6.47,8.68,8.68,0,0,0,6.42,2.69h1a9.21,9.21,0,0,0,9.18-9.17v-48a5.67,5.67,0,0,1,1.94-4.69,6.75,6.75,0,0,1,8.64,0,5.67,5.67,0,0,1,1.95,4.7v48.06A20.61,20.61,0,0,1,456,139.5" transform="translate(-75.82 -75.82)"/></g><g id="g136"><path id="path138" d="M504.09,99.05a9.24,9.24,0,0,0-2.49-6.48,8.16,8.16,0,0,0-6.26-2.7h-11V109.2h11.34a7.71,7.71,0,0,0,6-2.7,9.48,9.48,0,0,0,2.38-6.48v-1Zm9,13.07a20.73,20.73,0,0,1-9.34,7.78l11.34,23.87a6.89,6.89,0,0,1,.76,2.81,5.37,5.37,0,0,1-2.05,4.37,7,7,0,0,1-4.53,1.68,6.25,6.25,0,0,1-3.08-.81,5.58,5.58,0,0,1-2.32-2.75l-13.07-27.43h-6.48v24.84a5.51,5.51,0,0,1-1.94,4.64,6.92,6.92,0,0,1-8.64,0,5.51,5.51,0,0,1-1.95-4.64V83.71a6.46,6.46,0,0,1,6.26-6.26h17a21.43,21.43,0,0,1,21.6,21.6v1a21.39,21.39,0,0,1-3.51,12.1" transform="translate(-75.82 -75.82)"/></g><g id="g140"><path id="path142" d="M538.87,151.1a6.92,6.92,0,0,1-8.64,0,5.52,5.52,0,0,1-1.94-4.64V83.07a5.68,5.68,0,0,1,1.94-4.7,6.74,6.74,0,0,1,8.64,0,5.68,5.68,0,0,1,1.95,4.7v63.39a5.51,5.51,0,0,1-1.95,4.64" transform="translate(-75.82 -75.82)"/></g><g id="g144"><path id="path146" d="M586.06,98a8.22,8.22,0,0,0-2.64-6.25A9.06,9.06,0,0,0,577,89.22h-1a9.06,9.06,0,0,0-6.43,2.48A8.2,8.2,0,0,0,566.95,98v33.41a8.37,8.37,0,0,0,2.64,6.31A9,9,0,0,0,576,140.2h1a9.07,9.07,0,0,0,6.43-2.48,8.22,8.22,0,0,0,2.64-6.25V98Zm10.86,41.92a21,21,0,0,1-4.59,6.75,20.37,20.37,0,0,1-6.86,4.43,22.79,22.79,0,0,1-8.48,1.56h-1a22,22,0,0,1-15.23-6,21.27,21.27,0,0,1-4.65-6.64,20.16,20.16,0,0,1-1.72-8.37V98a20.17,20.17,0,0,1,1.72-8.37,22,22,0,0,1,4.65-6.7,21.1,21.1,0,0,1,6.86-4.48A21.76,21.76,0,0,1,576,76.8h1a22.06,22.06,0,0,1,8.48,1.62A21,21,0,0,1,596.92,89.6,20.71,20.71,0,0,1,598.59,98v33.48a21.09,21.09,0,0,1-1.67,8.42" transform="translate(-75.82 -75.82)"/></g><g id="g148"><path id="path150" d="M654,139.5a22.15,22.15,0,0,1-4.64,6.86A21.54,21.54,0,0,1,634,152.62h-1a21.53,21.53,0,0,1-15.23-6.27,22.15,22.15,0,0,1-4.64-6.86,20.61,20.61,0,0,1-1.73-8.37V83.07a5.68,5.68,0,0,1,1.94-4.7,6.75,6.75,0,0,1,8.64,0A5.66,5.66,0,0,1,624,83.06v48a8.91,8.91,0,0,0,2.64,6.47A8.68,8.68,0,0,0,633,140.2h1a9.21,9.21,0,0,0,9.18-9.17v-48a5.66,5.66,0,0,1,1.94-4.69,6.75,6.75,0,0,1,8.64,0,5.67,5.67,0,0,1,1.95,4.7v48.06A20.61,20.61,0,0,1,654,139.5" transform="translate(-75.82 -75.82)"/></g><g id="g152"><path id="path154" d="M711.34,132.1a20.57,20.57,0,0,1-1.68,8.42A19.05,19.05,0,0,1,705,147a20.8,20.8,0,0,1-7,4.16,25.36,25.36,0,0,1-8.75,1.46h-1a23.48,23.48,0,0,1-8.26-1.47,21,21,0,0,1-7-4.25,19.56,19.56,0,0,1-4.75-6.79,22.73,22.73,0,0,1-1.73-9.09,5.68,5.68,0,0,1,1.94-4.7,6.74,6.74,0,0,1,8.64,0,5.68,5.68,0,0,1,1.94,4.7q0,4.53,2.54,6.86a9.44,9.44,0,0,0,6.64,2.32h1a10.94,10.94,0,0,0,6.81-2,7.23,7.23,0,0,0,2.7-6.14,8.43,8.43,0,0,0-2.32-5.87,27,27,0,0,0-5.83-4.69q-3.51-2.15-7.56-4.31a51.85,51.85,0,0,1-7.56-4.9,26.69,26.69,0,0,1-5.83-6.25,15,15,0,0,1-2.32-8.47V95.24a15.43,15.43,0,0,1,1.95-7.81,19.33,19.33,0,0,1,5-5.77A23.09,23.09,0,0,1,681.13,78a22.62,22.62,0,0,1,7.25-1.24h1a25.56,25.56,0,0,1,8,1.24,22,22,0,0,1,6.71,3.51A17.35,17.35,0,0,1,708.74,87a14.57,14.57,0,0,1,1.73,7.07,5.28,5.28,0,0,1-2,4.59,7.37,7.37,0,0,1-4.41,1.45,6.89,6.89,0,0,1-4.19-1.4,5,5,0,0,1-1.91-4.32,4.34,4.34,0,0,0-2.37-3.67,11.53,11.53,0,0,0-6.27-1.51h-1a9.87,9.87,0,0,0-6,1.78,5.76,5.76,0,0,0-2.43,4.91v1.62a5.14,5.14,0,0,0,2.32,4,46.27,46.27,0,0,0,5.83,3.84l7.56,4.32a44.93,44.93,0,0,1,7.56,5.45,28.37,28.37,0,0,1,5.84,7.24,19.45,19.45,0,0,1,2.32,9.72" transform="translate(-75.82 -75.82)"/></g><g id="g156"><path id="path158" d="M160.37,143L141.79,161.3q-3.49,3.45-6.54,3.73a5.27,5.27,0,0,1-4.64-1.49,5.84,5.84,0,0,1-1.16-4.94q0.44-3.16,3.93-6.61L152,133.64q3.49-3.44,6.48-3.66a5.29,5.29,0,0,1,4.59,1.55,5.87,5.87,0,0,1,1.22,4.87q-0.38,3.11-3.87,6.55" transform="translate(-75.82 -75.82)"/></g><g id="g160"><path id="path162" d="M128.08,183.2a12.5,12.5,0,1,0-17.67-.42,12.52,12.52,0,0,0,17.67.42m8.63,9a25,25,0,1,1,.84-35.34,25,25,0,0,1-.84,35.34" transform="translate(-75.82 -75.82)"/></g><g id="g164"><path id="path166" d="M139.14,104.77l16,4.7a5.67,5.67,0,0,1,4,3.19,6.74,6.74,0,0,1-2.44,8.29,5.67,5.67,0,0,1-5.06.54l-16-4.7a5.52,5.52,0,0,1-3.91-3.17,6.93,6.93,0,0,1,2.44-8.29,5.51,5.51,0,0,1,5-.55" transform="translate(-75.82 -75.82)"/></g><g id="g168"><path id="path170" d="M162.16,118.06a12.5,12.5,0,1,1,8.47,15.51,12.52,12.52,0,0,1-8.47-15.51m4.95,27.51a25,25,0,1,0-16.94-31,25,25,0,0,0,16.94,31" transform="translate(-75.82 -75.82)"/></g><g id="g172"><path id="path174" d="M103.77,139.55l-3.93-16.21a5.69,5.69,0,0,1,.78-5,6.76,6.76,0,0,1,8.4-2,5.69,5.69,0,0,1,3,4.11l3.93,16.21a5.51,5.51,0,0,1-.79,5,6.93,6.93,0,0,1-8.4,2,5.53,5.53,0,0,1-3-4.05" transform="translate(-75.82 -75.82)"/></g><g id="g176"><path id="path178" d="M88.67,103.77a12.5,12.5,0,1,0,9.2-15.1,12.52,12.52,0,0,0-9.2,15.1m-12.15,2.94a25,25,0,1,1,30.19,18.4,25,25,0,0,1-30.19-18.4" transform="translate(-75.82 -75.82)"/></g></g></g></g></g></svg>