<?xml version="1.0" encoding="utf-8"?>
<!-- Generator: Adobe Illustrator 21.0.2, SVG Export Plug-In . SVG Version: 6.00 Build 0)  -->
<svg version="1.1" id="Layer_1" xmlns="http://www.w3.org/2000/svg" xmlns:xlink="http://www.w3.org/1999/xlink" x="0px" y="0px"
	 viewBox="0 0 19.3 9" style="enable-background:new 0 0 19.3 9;" xml:space="preserve">
<style type="text/css">
	.st0{fill:none;}
</style>
<path class="st0" d="M-28.1-7h24v24h-24V-7z"/>
<path class="st0" d="M-2-7h24v24H-2V-7z"/>
<path d="M2.3,4.1C3.5,2.8,5,1.7,6.8,1.2c1.8-0.6,3.8-0.7,5.7-0.3c1.4,0.3,2.8,0.9,4.1,1.8L19.3,0v9h-9l3-3c-0.6-0.6-1.2-1.1-2-1.5
	c-1.2-0.6-2.6-0.9-4-0.8C5.9,3.7,4.4,4.2,3.1,5C1.8,5.9,0.7,7.1,0,8.6C0.3,7,1.1,5.4,2.3,4.1z"/>
</svg>
