<?xml version="1.0" encoding="utf-8"?>
<!-- Generator: Adobe Illustrator 21.0.2, SVG Export Plug-In . SVG Version: 6.00 Build 0)  -->
<svg version="1.1" id="Layer_1" xmlns="http://www.w3.org/2000/svg" xmlns:xlink="http://www.w3.org/1999/xlink" x="0px" y="0px"
	 viewBox="0 0 19.3 9" style="enable-background:new 0 0 19.3 9;" xml:space="preserve">
<style type="text/css">
	.st0{fill:none;}
</style>
<path class="st0" d="M-28.1-7h24v24h-24V-7z"/>
<path class="st0" d="M-2-7h24v24H-2V-7z"/>
<path d="M17,4.1c-1.2-1.3-2.7-2.4-4.5-2.9c-1.8-0.6-3.8-0.7-5.7-0.3C5.3,1.2,3.9,1.8,2.7,2.7L0,0v9h9L6,6c0.6-0.6,1.2-1.1,2-1.5
	c1.2-0.6,2.6-0.9,4-0.8c1.4,0.1,2.9,0.6,4.2,1.4c1.3,0.9,2.4,2.1,3.1,3.6C18.9,7,18.2,5.4,17,4.1z"/>
</svg>
